<?xml version="1.0" encoding="UTF-8"?>
<svg id="Capa_1" data-name="Capa 1" xmlns="http://www.w3.org/2000/svg" viewBox="0 0 283 520">
  <defs>
    <style>
      .cls-1 {
        fill: #fafafa;
      }

      .cls-2 {
        fill: #e3384f;
      }
    </style>
  </defs>
  <path class="cls-1" d="M109.17,492.82c-.72,0-1.44-.04-2.13-.11-.39-.04-.78-.06-1.17-.06-.13,0-.26,0-.39,0-.56,.01-1.08,.02-1.6,.02-.57,0-1.14,0-1.72-.03h-.33c-.34,0-.69,.01-1.03,.04-.48,.04-.97,.07-1.47,.07-1.43,0-2.62-.19-3.26-.29-.11-.02-.24-.03-.36-.05l-37.99-4.55c-.45-.05-.9-.08-1.35-.08h-.38c-5.23-.13-10.19-2.27-14.29-6.2-4.16-3.99-5.19-10.23-2.56-15.55,3.14-6.35,8.3-8.28,11.1-8.86,.76-.16,1.54-.24,2.32-.24,.17,0,.35,.01,.52,.03h.16c.22,.02,.46,.03,.7,.03,3.3,0,6.42-1.43,8.57-3.93,1.31-1.52,3-2.67,4.88-3.3,.07-.02,.47-.17,.5-.18l-.13,.05c.67-.25,1.79-.66,3.19-.93l.98-.19c11.26-2.18,16.25-19.55,16.25-25.79v-2.76c.01-1.9,.02-3.82,0-5.74l-.07-5.57c-.12-9.71-.25-19.76-.42-29.72-.04-2.07-.13-4.15-.23-6.35v-.12c-.12-2.61-.24-5.21-.27-7.84-.06-5.42-.05-10.77-.04-15.94v-2.43c.01-2.11-.57-4.18-1.68-5.98-.18-.3-.36-.6-.54-.92l-.1-.18c-2.26-4.02-4.09-7.01-6.29-9.49-.78-.88-1.7-1.72-3.13-3.01-.94-.84-1.9-1.71-2.88-2.67-.74-.72-1.34-1.37-1.92-2.01l-.18-.2c-.28-.3-.57-.62-.88-.93-.02-.02-.12-.12-.22-.22-.71-.68-1.53-1.41-2.34-2.15l-.16-.15c-1.61-1.46-3.26-2.95-4.89-4.61-.62-.64-1.24-1.27-1.86-1.89-3.11-3.16-6.64-6.74-9.75-10.78-3.93-5.1-7.1-10.09-9.68-15.26-2.39-4.79-4.33-9.62-5.75-14.34-1.89-6.29-2.83-12.98-2.79-19.9,0-1.42,0-2.85-.03-4.27v-.13c-.04-2.92-.08-6.18,.09-9.46,.17-3.35,.59-6.69,.95-9.64,.15-1.19,.3-2.37,.43-3.55,.11-.96,.21-1.94,.31-2.92l.03-.33c.29-2.84,.59-5.8,1.08-8.85,.78-4.9,1.77-9.74,2.72-14.28,.94-4.46,1.98-9.03,3.1-13.58,.61-2.49,1.31-5.05,1.87-7.11l.06-.21c.45-1.65,.9-3.31,1.32-4.97l.03-.11c.82-3.19,1.57-6.14,2.17-9.08,1.68-8.32,7.17-12.9,15.45-12.9h.34c.19,0,.39,0,.57-.01l.4-.02c.71-.04,1.4-.07,2.08-.07,.3,0,.6,0,.89,.02,.2,0,.36,.01,.52,.01,.81,0,1.63-.09,2.42-.26,.79-.17,1.6-.26,2.41-.26s1.54,.08,2.29,.24c.76,.16,1.54,.24,2.31,.24,1.18,0,2.35-.18,3.47-.55,2.22-.71,4.47-1.08,6.69-1.08h.17c1.16,0,2.39,0,3.62,0h5.76c3.91,0,7.48-1.98,9.57-5.29,2.08-3.3,2.32-7.39,.63-10.91-.28-.59-.56-1.23-.81-1.91-2.17-5.74,.06-12.18,5.29-15.32,.34-.2,.7-.4,1.07-.57,2.71-1.3,4.76-3.57,5.77-6.4,1.48-4.12,5.25-7.05,9.62-7.44,4.41-.4,8.2-3.35,9.66-7.53,.86-2.45,1.91-4.64,2.62-6.07,.44-.87,.89-1.74,1.35-2.6,.52-.97,.98-1.86,1.31-2.53,.43-.89,.73-1.82,.92-2.77,0,0,.04-.2,.04-.21,.91-4.95,1.97-10.19,4.03-15.29,.4-.99,.68-1.74,.86-2.33,.12-.38,.21-.77,.29-1.17,.41-2.13,.99-3.9,1.51-5.45,.25-.74,.54-1.66,.63-1.99,1.24-4.85,3.54-8.28,6.62-11.94,1.4-1.67,4.69-5.58,10.38-6.97,.26-.06,.52-.13,.77-.22,1.16-.37,2.06-.48,2.35-.51,.67-.09,1.18-.13,1.7-.13,1.99,0,3.94,.52,5.66,1.52,4.55,2.63,7.14,6.81,7.91,12.79,.11,.85,.28,1.77,.49,2.83l.13,.67c.04,.23,.1,.5,.17,.76,.17,.65,.41,1.66,.48,2.92,.05,.79,.11,1.59,.17,2.4,0,.02,.11,1.47,.16,2.09,.26,3.69,2.32,7.03,5.5,8.92,1.75,1.04,3.75,1.59,5.78,1.59,1.63,0,3.2-.34,4.68-1.01,.91-.41,1.86-.8,2.85-1.14,3.67-1.3,7.35-2.6,11.03-3.89l.14-.05c1.11-.39,2.17-.96,3.08-1.64,1.97-1.47,4.26-2.63,6.98-3.53,.86-.29,1.68-.67,2.44-1.15l.24-.15c1.12-.7,2.19-1.41,3.26-2.13l.25-.17c1.21-.81,2.44-1.63,3.69-2.42,1.91-1.2,3.74-1.82,4.96-2.23,1.92-.64,3.55-.93,5.29-.93,2.18,0,9.56,.68,13.05,9.43,2.84,7.09,1.34,14.82-4,20.68-3.1,3.41-6.43,6.49-8.99,8.79-.6,.54-1.28,1.07-1.99,1.58-1.5,1.05-2.75,2.47-3.59,4.11-.1,.2-.48,.9-.48,.9-1.19,2.2-3,5.54-6.3,8.33-.41,.35-.79,.72-1.14,1.11-.61,.68-1.55,1.69-2.77,2.63l-.34,.27c-3.31,2.52-4.96,6.67-4.28,10.81,.47,2.89,.11,6.11-1.07,9.57-.95,2.76-.8,5.75,.43,8.41,.41,.89,.78,1.74,1.12,2.6,.21,.51,.38,1.05,.53,1.6,1.19,4.41,4.88,7.66,9.4,8.28,3.83,.52,7.29,2,10.27,4.41,.35,.28,.58,.45,.81,.62,1.96,1.46,4.96,3.69,6.99,7.67,1.47,2.89,1.63,6.28,.44,9.3-1.59,4.01-.79,8.5,2.08,11.71,.49,.54,.96,1.11,1.41,1.69,.31,.4,.67,.8,1.05,1.18,1.13,1.1,2.66,2.17,4.67,3.26,5.51,2.99,9.48,7.1,11.98,9.93,5.11,5.78,5.95,13.62,2.14,19.97-3.05,5.08-8.16,8.12-13.67,8.12-.86,0-1.72-.08-2.57-.22-.64-.11-1.3-.17-1.96-.17-2.82,0-5.52,1.05-7.61,2.94-2.57,2.34-3.94,5.8-3.67,9.26,.09,1.12,.08,2.27-.04,3.42-.77,7.82-7.14,13.72-14.84,13.73-1.51,0-3.05-.22-4.55-.66-6.67-1.94-10.02-6.93-11.45-9.06-1.55-2.3-2.85-4.67-4.01-6.75-.7-1.26-1.42-2.57-2.13-3.74-1.88-3.1-3.59-5.88-5.43-8.38l-.23-.31c-2.14-2.84-5.52-4.53-9.05-4.53-.8,0-1.61,.09-2.39,.26-1.17,.26-2.38,.38-3.59,.38-1.53,0-3.06-.22-4.53-.65-1.03-.3-2.1-.46-3.18-.46-2.69,0-5.3,.96-7.35,2.71-2.91,2.49-4.36,6.24-3.88,10.04,.72,5.61,.9,11.57,.58,18.74-.56,12.38-4.11,24.37-10.86,36.65-3.63,6.61-7.66,12.15-12.32,16.96-3.92,4.04-7.86,8.05-11.81,12.06l-3.31,3.36c-.91,.93-1.83,1.83-2.74,2.74l-.79,.78c-.14,.13-.3,.31-.47,.49-.7,.78-1.5,1.47-2.37,2.06-1.18,.79-2.19,1.78-3,2.95-.49,.71-1.14,1.73-1.76,2.72-.49,.77-.97,1.54-1.46,2.29-.6,.92-1.18,2.04-1.99,3.66-.41,.82-.83,1.64-1.26,2.45l-.06,.12c-1.36,2.58-1.69,5.49-.95,8.25,.08,.28,.14,.57,.2,.88,.23,1.18,.34,2.34,.35,3.66l.11,7.07c.09,5.98,.18,12.17,.2,18.3v1.38c.03,10.57,.06,21.43,0,32.13,0,.31-.03,.94-.06,1.8v.33c-.35,9.41-.57,15.63,.22,20.32,1.43,8.42,6.57,10.74,10.63,11.2l.77,.09c2.05,.23,4.23,.52,6.5,.88,1.48,.23,2.6,.64,3.42,.94,.04,.01,.54,.19,.6,.21,1.12,.37,2.17,.91,3.16,1.63,1.94,1.42,4.25,2.17,6.67,2.17,.3,0,.6-.01,.91-.04,.26-.02,.55-.04,.84-.04,2.1,0,4.15,.58,5.94,1.69,0,0,1.57,.98,1.76,1.09,5.5,3.23,8.42,9,7.63,15.09-.81,6.24-4.96,11.37-10.83,13.39-.88,.3-1.77,.58-2.66,.85-1.32,.41-2.07,.64-2.71,.9-1.13,.46-2.38,.79-3.72,.99-1.23,.18-2.42,.56-3.53,1.13-1.04,.53-2.12,.93-3.21,1.19-3.34,.78-8.35,1.83-13.33,1.83-.27,0-.53-.01-.8-.02-.09,0-.74-.02-.83-.02-1,0-2,.13-2.96,.4-.64,.17-1.29,.3-1.96,.38-2.14,.25-4.13,.42-6.06,.57l-1.26,.11c-.27,.02-.56,.05-.84,.09l-.15,.02c-.98,.11-2.26,.26-3.73,.26Z"/>
  <g id="Pd97MK.tif">
    <g>
      <path class="cls-2" d="M153.13,172.42c.5,1.85,.88,3.75,1.53,5.55,2.01,5.57,4.15,11.09,6.19,16.65,.8,2.18,1.7,4.38,2.11,6.65,.4,2.19,.43,4.51,.24,6.74-.21,2.43-1.9,3.33-4.36,2.73-.3-.07-.61-.13-1.11-.24,0,.41-.05,.78,0,1.13,1.07,7.15,2.11,14.3,3.24,21.45,.99,6.27,1.08,12.56,.79,18.88-.51,11.37-4.04,21.81-9.48,31.71-2.91,5.29-6.32,10.2-10.53,14.53-5,5.15-10.04,10.25-15.07,15.37-1.31,1.33-2.65,2.64-3.98,3.96-.22,.22-.4,.51-.66,.66-4.44,2.6-6.67,7.07-9.34,11.13-1.45,2.21-2.53,4.65-3.78,6.98-.32,.59-.64,1.18-.96,1.75-1.23-1.24-2.27-2.33-3.36-3.37-.33-.32-.75-.58-1.17-.76-2.33-.99-3.71-.07-3.57,2.43,.08,1.39,.42,2.77,.61,4.15,.19,1.46,.48,2.92,.49,4.39,.04,13.83,.03,27.66,.02,41.48,0,7.42-.01,14.84-.13,22.26-.07,4.12-.35,8.23-.58,12.34-.03,.6-.29,1.18-.79,1.74,0-2.88,.03-5.76,0-8.64-.15-11.78-.28-23.56-.49-35.34-.08-4.75-.44-9.5-.5-14.24-.09-7.39-.02-14.78-.02-22.17,0-1.92,.7-3.9-.63-5.9-1.67,.04-2.33-1.3-3.17-2.79-2.24-4-4.59-7.94-7.67-11.43-2.03-2.3-4.41-4.15-6.57-6.27-1.11-1.09-2.1-2.31-3.22-3.38-2.37-2.25-4.89-4.35-7.17-6.69-3.69-3.79-7.51-7.47-10.75-11.68-3.25-4.21-6.14-8.66-8.52-13.41-2.01-4.03-3.73-8.21-5.04-12.55-1.63-5.41-2.34-10.93-2.31-16.57,.02-4.45-.18-8.9,.04-13.34,.21-4.18,.86-8.34,1.32-12.51,.43-3.86,.74-7.74,1.35-11.58,.73-4.6,1.67-9.17,2.62-13.73,.93-4.42,1.94-8.82,3.01-13.21,1-4.08,2.18-8.12,3.22-12.19,.83-3.24,1.66-6.48,2.32-9.76,.58-2.88,1.56-3.88,4.59-3.82,2,.04,4.06-.44,5.71,.37,1.38-.36,2.55-.67,3.7-.97,.6,.98,1.07,1.74,1.55,2.5-2.14,1.26-4.63,1.13-9.07-.45-1.52,1.05-2.8,2.36-3.35,4.24-2.62,8.89-5.33,17.75-6.89,26.91-.48,2.83-1.51,5.57-2.01,8.4-1.41,7.96-2.75,15.93-3.95,23.92-.57,3.76-.67,7.59-1.16,11.36-.53,4.13,.11,8.18,.43,12.26,.1,1.24,.1,2.5,.22,3.74,.16,1.59,.8,2.31,2.39,2.26,5.58-.17,11.22,.63,16.72-1,1.25-.37,2.6-.45,3.92-.58,2.78-.27,5.58-.46,8.36-.72,2.25-.2,4.49-.45,6.73-.68,.54-.05,1.08-.15,1.62-.15,5.23-.01,10.46,.04,15.69-.02,5.22-.06,10.44-.25,15.66-.32,.92-.01,1.87,.12,2.75,.38,1.56,.46,2.04,1.44,1.81,3.03-.18,1.23-.36,2.47-.32,3.7,.04,1.3,.49,1.74,1.73,1.72,3.74-.08,7.47-.26,11.2-.41,2.03-.08,4.05-.12,6.08-.25,1-.06,2.02-.19,2.98-.46,1.6-.45,1.84-.84,1.96-2.47,.19-2.59,1.17-3.54,3.84-3.55,1.95-.01,3.9,.1,5.85,.13,.54,.01,1.08-.04,1.78-.07,.24-1.7,.62-3.36,.69-5.03,.2-4.43,.31-8.86-.28-13.29-.66-4.93-1.12-9.89-1.88-14.8-.82-5.3-1.76-10.59-2.91-15.82-.8-3.64-2.06-7.18-3.12-10.76-1.02-3.44-1.92-6.91-3.1-10.29-1.44-4.11-2.94-8.22-5.35-11.92-.53-.82-.72-1.85-1.14-2.75-.39-.83-.8-1.69-1.36-2.4-1.1-1.41-2.29-2.74-3.49-4.06-.23-.25-.69-.37-1.06-.39-2.33-.14-4.66-.26-7-.32-.77-.02-1.54,.15-2.31,.23-.54,.05-1.11,.23-1.62,.11-3.55-.85-7.16-.37-10.74-.45-3.04-.07-6.08-.06-9.12,0-1.78,.04-3.57,.39-5.35,.33-2.55-.09-5.1-.41-7.64-.68-1.93-.2-3.85-.46-5.78-.7-1.12-.14-2.24-.31-3.35-.69,1.37-.55,2.73-.87,4.17-.86,2.96,.02,5.92,0,8.88,0,6.31,0,12.63-.07,18.94,.03,3.34,.06,6.66,.5,10,.62,2.87,.11,5.75,.02,8.81,.02-.56-1.27-1.75-1.49-2.76-1.74-2.39-.58-4.53-1.66-6.48-3.1-2.36-1.74-3.17-4.63-2.49-7.48,.65-2.72,1.25-5.48,1.51-8.26,.17-1.85-.6-3.65-1.7-5.23-1.47-2.11-2.9-4.25-4.31-6.4-.38-.58-.67-1.23-.92-1.89-.24-.64-.12-1.25,.52-1.63,.7-.42,1.41-.35,1.87,.32,1.26,1.87,2.47,3.78,3.66,5.69,.57,.93,1.03,1.93,1.6,2.85,.28,.46,.65,.89,1.06,1.23,1.07,.87,1.98,.6,2.18-.75,.18-1.22,.09-2.48,.07-3.73-.05-3.19-.25-6.38-.15-9.57,.07-2.32,.52-4.63,.84-6.94,.09-.67,.36-1.31,.53-1.95,1.78,.33,2.77,1.27,2.67,2.74-.11,1.7-.5,3.38-.7,5.08-.65,5.48-1.2,10.97-.13,16.47,.35,1.8,.96,3.39,2.4,4.68,1.84,1.66,3.53,3.49,5.2,5.17,1.76-.19,2.22-1.42,2.61-2.59,.72-2.19,.62-4.46,.4-6.73-.23-2.39-.64-4.79-.63-7.18,0-1.25,.59-2.59,1.22-3.72,2.03-3.64,3.64-7.42,4.33-11.54,.23-1.38,.36-2.78,.45-4.17,.14-2.3,.29-4.61,.3-6.92,.03-4.03,1.51-7.61,3.26-11.11,1.08-2.16,2.32-4.25,3.28-6.46,.64-1.47,1.05-3.08,1.35-4.67,.82-4.45,1.69-8.86,3.39-13.09,.73-1.8,1.41-3.66,1.76-5.56,.45-2.4,1.44-4.61,2.03-6.93,.75-2.94,2.41-5.12,4.29-7.35,1.47-1.75,2.95-3.16,5.3-3.4,.22-.02,.42-.2,.64-.28,.14-.05,.3-.05,.61-.1,1.65,.95,2.12,2.61,2.36,4.45,.21,1.61,.55,3.21,.84,4.81,.1,.54,.32,1.06,.35,1.59,.21,3.5,.65,7.01,.49,10.5-.15,3.36,.62,6.48,1.37,9.66,.49,2.04,1.04,4.07,1.58,6.1,.53,1.98,.08,3.89-.58,5.73-.62,1.72-.72,3.23,.27,4.91,.55,.94,.51,2.23,.66,3.38,.12,.9,.14,1.8,.2,2.71,1.53,.29,2.27-.62,3.03-1.34,3.46-3.29,7.41-5.94,11.27-8.71,1.96-1.4,4.09-2.56,6.11-3.88,.98-.64,1.96-1.3,2.8-2.1,2.02-1.93,4.4-3.2,7-4.12,3.67-1.3,7.34-2.59,11.01-3.88,2.14-.75,4.19-1.66,5.99-3.1,1.41-1.13,3.06-1.77,4.81-2.3,1.53-.46,2.96-1.34,4.33-2.2,2.45-1.52,4.8-3.2,7.24-4.74,.78-.49,1.7-.8,2.58-1.09,2.25-.75,3.3-.23,4.19,1.99,1.35,3.36,.41,6.36-1.86,8.85-2.57,2.82-5.37,5.45-8.2,8.01-1.19,1.08-2.74,1.78-4.14,2.61-1.26,.75-2.12,1.79-2.62,3.17-.42,1.17-.87,2.35-1.46,3.44-1.15,2.11-2.23,4.25-4.26,5.77-1.17,.88-1.99,2.23-3.15,3.13-2.21,1.71-4.57,3.25-6.85,4.87-2.09,1.49-3.82,3.16-5.14,5.56-1.22,2.22-1.72,3.68,.14,5.67,.98,1.04,1.41,2.58,2.19,3.83,1.6,2.55,.67,4.96-.35,7.35-.64,1.5-1.43,2.93-2.09,4.42-.79,1.78-.49,3.45,.43,5.15,1.41,2.6,2.84,5.21,3.93,7.94,.48,1.21,.19,2.73,.2,4.11,0,.3-.16,.6-.27,.89-1.54,4,.65,6.3,3.58,7.44,3.99,1.54,8.12,2.73,12.21,4.01,.8,.25,1.68,.3,2.53,.36,2.01,.13,3.76,.79,5.35,2.07,1.75,1.41,3.76,2.53,4.83,4.62-.73,1.31-1.42,2.62-2.17,3.88-.81,1.36-2.5,1.89-4.35,1.33-2.3-.71-4.58-1.49-6.87-2.26-1.22-.41-2.41-.77-3.42,.76,.41,.54,.76,1.13,1.23,1.61,2.99,3.08,5.96,6.18,9.04,9.17,1.34,1.3,2.89,2.37,4.39,3.49,2.63,1.95,5.2,3.91,7.24,6.55,2.46,3.19,5.77,5.53,9.26,7.42,3.52,1.91,6.32,4.57,8.89,7.48,1.91,2.16,2.17,4.58,.92,6.67-1.65,2.75-4.46,3.51-6.88,1.42-2.11-1.82-4.08-3.87-5.81-6.06-1.48-1.88-2.97-3.48-5.23-4.46-2.65-1.16-5.01-2.89-7.01-5.01-3.49-3.69-7.32-6.97-11.3-10.14-3.47-2.76-6.65-5.89-9.93-8.89-1.16-1.06-2.35-2.05-4-2.42-1.17,.88-1.41,2.11-1.48,3.48-.07,1.31-.12,2.66-.5,3.9-.6,1.95-1.76,2.57-3.75,2.35-.15-.02-.31-.05-.46-.09-1.06-.22-2.29-.74-3,.41-.75,1.22-1.59,2.54-.97,4.16,.67,1.75,1.38,3.41,2.55,4.95,1.88,2.48,3.49,5.17,5.19,7.79,1.87,2.88,3.8,5.7,6.19,8.2,2.82,2.95,5.02,6.35,6.92,9.96,2.33,4.41,4.74,8.77,7.14,13.14,.92,1.68,1.46,3.41,1.27,5.36-.27,2.72-2.36,4.07-4.97,3.31-2.46-.71-3.94-2.61-5.21-4.5-2.16-3.22-3.85-6.74-5.86-10.07-1.9-3.13-3.81-6.26-5.97-9.2-2.58-3.51-5.53-6.75-8.11-10.26-1.82-2.48-4.01-4.57-6.18-6.7-.17-.16-.37-.28-.57-.41-2.43-1.63-3.65-1.04-4.01,1.9-.08,.7-.26,1.38-.3,2.08-.22,3.57-5.19,6.28-8.54,3.25-.52-.47-1.01-.98-1.55-1.43-.66-.55-1.3-1.14-2.04-1.55-2.16-1.2-3.16-1.04-5.06,.53-.65,.54-1.36,1.03-2.11,1.41-1.56,.78-2.95,.46-4.34-.59-2.12-1.6-3.55-3.57-4.52-6.06-.75-1.94-1.76-3.87-3.05-5.48-1.92-2.4-3.42-5.04-4.73-7.75-1.28-2.65-1.97-5.57-3.03-8.33-.84-2.17-1.82-4.29-2.8-6.41-.28-.59-.79-1.08-1.19-1.61-.19,.08-.38,.16-.57,.24Zm3.19-9.48c-.16,.16-.32,.32-.49,.48,.79,1.04,1.57,2.09,2.37,3.13,.38,.49,.8,.96,1.16,1.46,1.84,2.51,3.65,5.03,5.5,7.53,.23,.31,.57,.53,.86,.79,3.48,2.99,6.95,6,10.45,8.97,3.28,2.79,7.51,2.07,10.06-1.72,1.61-2.39,3.39-4.44,5.99-5.71,.49-.24,.92-.59,1.41-.83,2.21-1.12,3.71-2.79,4.33-5.23,.37-1.47,1.14-2.73,2.32-3.7,.84-.69,1.74-1.32,2.62-1.96,3.13-2.25,3.21-3.01,.8-5.91-1.84-2.22-3.7-4.45-4.56-7.29-.67-2.2-1.4-4.35-.19-6.68,.73-1.4,.79-3.1,.23-4.58-.81-2.11-.75-4.27-.87-6.45-.05-1-.08-2.09-.49-2.97-.85-1.83-1.15-3.72-1.13-5.67,.02-1.39,.09-2.8,.33-4.16,.45-2.53-.52-4.74-1.28-7.03-.35-1.05-.89-1.76-1.98-2.17-.33,.24-.64,.46-.94,.7-1.53,1.19-2.98,2.49-4.59,3.55-1.68,1.11-3.54,1.95-5.27,2.98-1.8,1.08-3.66,2.11-5.3,3.4-2.63,2.08-5.11,4.34-7.63,6.56-.46,.4-.82,.92-1.21,1.4-.62,.78-1.14,1.66-1.86,2.33-1.32,1.21-2.81,2.23-4.13,3.43-2.66,2.41-5.26,4.88-7.87,7.34-.81,.76-1.47,1.6-.81,2.97,2.88-1.89,5.65-3.75,8.47-5.52,1.78-1.11,3.64-2.1,5.47-3.12,.61-.34,1.24-.64,1.87-.95,3.75-1.91,7.46-3.92,11.27-5.68,2.18-1.01,4.53-1.72,7.01-1.57,.63,.04,1.3,.13,1.16,1.25-.76,.17-1.58,.46-2.41,.52-4.67,.37-8.89,2.23-13.12,4.01-.76,.32-1.64,.84-2.01,1.51-.69,1.27-1.79,1.91-2.92,2.59-1.2,.72-2.43,1.41-3.62,2.15-.91,.57-1.87,1.12-2.4,2.54,2.02-.09,3.89,.05,5.66-.29,4.07-.79,8.16-1.08,12.29-1.29,4.81-.24,9.26,1.01,13.66,2.68,.21,.08,.38,.26,.57,.4-1.42,.05-2.7-.19-3.93-.59-3.82-1.25-7.79-1.41-11.73-1.83-.37-.04-.8,.03-1.14,.19-2.39,1.08-5.01,1.06-7.52,1.58-2.97,.61-5.94,1.25-8.89,1.94-.7,.16-1.56,.27-1.9,1.49,.9,.1,1.71,.23,2.52,.27,1.95,.1,3.93-.04,5.84,.28,2.37,.4,4.74,1.01,7,1.82,2.56,.92,5.16,1.9,7.45,3.32,3.69,2.3,7.15,4.98,10.69,7.51,.38,.27,.67,.66,1,.99-1.01-.04-1.77-.39-2.48-.81-5.22-3.11-10.34-6.37-16.13-8.43-5.22-1.86-10.67-2.06-16.06-2.67-.38-.04-.79-.04-1.17,.05-.95,.23-1.99,.28-2.65,1.12,.26,.94,.99,.99,1.66,1.19,3.13,.93,6.3,1.78,9.36,2.9,2.33,.86,4.85,1.7,6.69,3.26,2.94,2.49,6.03,4.64,9.4,6.45,.27,.15,.56,.29,.8,.48,.25,.19,.45,.44,.67,.67-.09,.13-.18,.26-.27,.39-1.45-.7-2.94-1.33-4.33-2.12-6.1-3.47-12.17-7-18.84-9.27-2.5-.85-5.1-1.4-7.67-2.03-.37-.09-1.01,.04-1.2,.31-.21,.29-.2,.96,.01,1.26,.42,.62,.98,1.2,1.59,1.64,1.45,1.05,2.99,1.98,4.44,3.03,3.88,2.8,7.15,6.27,10.58,9.56,.59,.57,1.15,1.16,1.32,1.91-1.18,.06-2.2,.11-3.32,.17-3.56-3.25-6.43-7.4-10.59-10.16Zm47.62,24.74c.81-.77,1.49-1.5,2.26-2.12,.78-.64,1.59-1.28,2.48-1.72,1.39-.68,2.87-1.18,4.3-1.78,1.72-.73,2.04-1.13,1.68-3.05-.49-2.59,.38-4.41,2.64-5.66,.61-.34,1.2-.72,1.79-1.1,1.12-.7,2.27-1.37,3.35-2.13,1.04-.74,1.51-1.84,1.23-3.08-.22-.98-.52-2.04-1.12-2.8-1.82-2.33-3.76-4.57-5.72-6.78-.87-.99-1.88-1.86-2.87-2.74-1.79-1.58-2.21-3.43-1.48-5.69,.58-1.81,.42-2.09-1.19-2.94-.67-.35-1.28-.63-1.02-1.56,1.03-.58,2.06-1.16,3.15-1.77-1.08-1.96-2.08-3.62-2.94-5.36-.96-1.93-3.06-2.56-4.57-4.04,.4-.6,.76-1.08,1.07-1.6,.68-1.14,1.35-2.27,1.98-3.43,.87-1.6,1.09-3.21-.12-4.77-.07-.09,.02-.3,.04-.52,.84-.6,1.75-1.19,2.58-1.87,.89-.73,1.13-1.73,.57-2.73-.84-1.49-1.74-2.94-2.71-4.35-.76-1.11-1.99-1.25-3.14-.94-1.23,.33-1.49,1.48-1.62,2.6-.04,.31-.04,.63,.02,.93,.29,1.45,.55,2.9,.94,4.32,.21,.78,.3,1.48,0,2.26-.32,.79-.43,1.68-.81,2.44-.62,1.26-.62,2.47-.34,3.85,.45,2.27,.85,4.54,.21,6.93-.34,1.26,0,2.8,.38,4.11,.51,1.7,.62,3.35,.39,5.08-.09,.67-.18,1.43,.05,2.02,1.04,2.74,2.56,5.15,4.99,6.92,.94,.68,1.84,1.45,2.6,2.33,1.42,1.65,2.69,3.42,4.06,5.12,1.91,2.37,1.23,5.3-1.64,6.47-1.32,.54-2.32,1.39-2.91,2.57-.62,1.23-1,2.6-1.29,3.95-.17,.81-.29,1.43-1.09,1.89-1.35,.77-2.59,1.71-3.9,2.54-1.92,1.21-2.98,2.91-3.08,5.19-.03,.53-.04,1.14-.3,1.58-.74,1.24-1.14,2.54-1.15,3.99,0,.45-.2,.92-.41,1.33-.87,1.66-2.24,1.85-3.59,.51-.28-.27-.48-.62-.76-.89-1.35-1.29-2.34-1.28-3.55,.15-.5,.59-.92,1.28-1.19,2-.38,1.02-.51,2.12-.87,3.15-1.25,3.55-2.41,3.28-4.68,1.55-.12-.09-.23-.22-.35-.32-1.84-1.53-2.74-1.61-4.87-.5-.89,.47-1.79,.97-2.74,1.29-1.63,.56-2.72,.08-3.37-1.51-.37-.93-.6-1.94-.71-2.94-.36-3.44-1.71-6.2-4.69-8.2-2-1.34-3.8-2.99-5.58-4.61-.65-.59-1.01-1.51-1.46-2.31-.22-.4-.28-.9-.52-1.28-2.03-3.32-4.01-6.66-6.15-9.9-.73-1.1-1.51-2.3-3.15-3.04,.23,.58,.3,.86,.44,1.11,1.25,2.25,2.55,4.46,3.74,6.74,1.08,2.07,2.18,4.14,3,6.32,1.27,3.35,2.31,6.78,3.46,10.17,.36,1.06,.92,2.05,2,2.47,1.51,.58,2.4,1.63,2.95,3.1,.49,1.31,1.03,2.61,1.68,3.84,.87,1.65,1.75,3.31,2.84,4.81,1.14,1.57,2.44,1.83,4.1,.94,3.1-1.67,6.09-1.62,9.03,.35,1.28,.86,2.68,1.23,4.22,1.14,1.75-.09,2.39-.6,2.72-2.28,.17-.84,.28-1.69,.47-2.52,.26-1.09,.97-1.59,2.07-1.94,2.07-.67,3.86-.16,5.56,.9,2.75,1.71,4.91,4.09,6.89,6.61,3.76,4.78,7.37,9.68,11.15,14.44,1.17,1.48,2.21,2.98,3.13,4.63,2.66,4.77,5.52,9.43,9.15,13.55,.62,.7,1.28,1.39,2.03,1.93,.84,.6,1.68,.26,2.06-.7,.4-1.01,.28-2.03-.25-2.94-2.01-3.52-3.86-7.15-6.15-10.49-3.92-5.72-7.48-11.7-11.93-17.05-1.49-1.8-2.66-3.87-4.18-5.63-2.3-2.66-4.5-5.38-6.15-8.5-1.37-2.6-2.95-5.14-3.13-8.02Zm-47.25-49.03c.43-.3,.64-.41,.81-.56,3.23-2.81,6.44-5.64,9.69-8.42,2.9-2.49,5.91-4.85,8.73-7.42,2.5-2.27,5.11-4.36,8.29-5.54,1.9-.7,3.44-1.79,4.73-3.3,.61-.71,1.22-1.42,1.86-2.1,2.72-2.87,5.81-5.43,7.62-9.08,.23-.46,.73-.82,1.15-1.16,3.09-2.49,6.14-5.02,9.3-7.41,1.53-1.16,3.07-2.45,5.21-2.42,.35,0,.71-.29,1.04-.49,5.25-3.17,9.62-7.4,13.89-11.72,1.03-1.04,1.88-2.29,2.71-3.51,.86-1.28,1.45-2.69,1.81-4.54-.86,.08-1.57,0-2.17,.24-1.15,.45-2.29,.99-3.33,1.66-1.24,.8-2.28,1.92-3.55,2.66-2.53,1.47-3.74,3.61-3.93,6.48-.04,.63-.36,1.39-.8,1.83-1.8,1.83-3.69,3.57-5.58,5.29-.18,.17-.65,.02-1.02,.02,1.04-1.8,2.02-3.47,2.97-5.15,.93-1.65,1.96-3.27,1.97-5.27-3.87-.54-7.47,1.4-8.74,4.7-.83,2.17-1.41,4.43-2.17,6.62-.87,2.52-1.95,4.51-4.94,4.83,.63-.84,1.61-1.49,1-2.69-.08-.15,.22-.55,.41-.77,.4-.47,.84-.91,1.28-1.38-.85-1.62,.9-3.32-.27-4.89-1.14-.84-2.25-.45-2.89,.49-1.2,1.77-2.93,2.99-4.32,4.55-1.01,1.14-1.69,2.59-1.42,4.03,.53,2.78-.81,5.02-2.32,6.77-2.22,2.57-5.05,4.62-7.71,6.79-4.64,3.81-9.49,7.37-13.95,11.37-3.17,2.85-5.99,6.13-8.7,9.45-1.4,1.71-2.2,3.91-3.99,5.37-.72,.59-1.41,1.23-2.06,1.89-.7,.71-1.41,1.45-.64,2.79Zm-1.04-33.6c-1.76,4.39-3.44,8.36-4.96,12.4-2.48,6.6-3.54,10.96-3.09,12.48,.33-.64,.61-1.18,.89-1.71,2.02-3.95,4.03-7.91,6.07-11.85,.26-.5,.53-1.17,1.54-.89-.06,1.46-.6,2.82-1.17,4.1-1.41,3.2-2.99,6.32-4.45,9.5-.45,.99-.8,2.03-1.12,3.07-.1,.34,.06,.76,.15,1.54,1.55-1.82,2.44-3.52,3.37-5.22,1.8-3.28,3.66-6.52,5.56-9.74,.59-.99,1.27-1.79,2.72-1.84,1.41-.05,2.3-1.28,2.53-2.67,.44-2.6,.75-5.25,.02-7.83-.38-1.35-1.1-2.6-1.67-3.9-.83,.39-1.49,.71-2.17,1.03-.67-1.13-.23-1.97,.1-2.84,.47-1.24,.99-2.47,1.27-3.75,.44-2.02,.26-4-.91-5.78-1.03-.05-1.53,.59-1.93,1.24-1.44,2.31-2.82,4.65-4.23,6.98-.4,.66-.76,1.38-1.28,1.93-.8,.83-1.74,1.53-2.8,2.45,.36-2.34,1.45-4.13,2.59-5.86,1.96-2.99,4.02-5.93,6-8.91,1.04-1.56,.8-3.24-.58-4.55-1.19-1.13-2.11-1.01-2.63,.53-.76,2.25-2.03,4.19-3.34,6.13-2.65,3.93-3.85,8.3-3.96,13-.01,.5,.18,1.01,.27,1.51,.49-.02,.82-.04,1.48-.07-.48,.86-.75,1.59-1.23,2.15-.66,.76-.9,1.59-.98,2.55-.47,5.48-1.59,10.76-4.46,15.57-1.02,1.71-.73,3.64-.49,5.97,.49-.61,.75-.8,.85-1.06,2.25-6.14,4.58-12.24,7.23-18.22,1.15-2.59,2.46-5.12,4.81-7.43Zm11.53,1.06c.47-.36,.88-.58,1.17-.91,2.19-2.43,4.43-4.82,6.52-7.33,1.58-1.89,1.37-5.72-.28-7.6-.19-.22-.53-.31-.77-.45-.66,.26-1.28,.49-2.27,.88,.69-1.71,1.62-2.66,2.9-3.17,1.36-.55,1.8-1.68,1.97-2.92,.17-1.23,.22-2.5,.13-3.73-.11-1.52-.33-3.07-1.59-4.07-2.08,.4-2.73,2.86-5.36,3.12,.98-1.35,1.64-2.36,2.42-3.29,1.07-1.28,2.03-2.62,2.12-4.33,.09-1.79,.03-3.58-.02-5.38-.02-.86-.21-1.7-1.24-2.06-.81,.6-1.55,1.32-2.42,1.78-3.07,1.61-4.31,3.94-3.59,7.19,.29,1.33-.12,2.44-.56,3.95q-.97-2.52-2.36-3.32c-.91,.29-1.7,1.21-3,.5,.57-.69,1.09-1.35,1.65-1.96,.69-.75,.9-1.56,.68-2.58-.34-1.59-.58-3.2-.83-4.8-.11-.71-.27-1.34-1.21-1.61-1,1.81-1.18,3.74-1.25,5.65-.1,2.41-.05,4.83,.01,7.25,.02,.68,.19,1.39,.43,2.04,.47,1.23,1.02,2.44,1.59,3.63,.18,.38,.52,.68,.82,1.06,.78-.64,1.42-1.18,2.27-1.87,.15,.6,.44,1.07,.31,1.37-.28,.63-.75,1.17-1.18,1.73-.72,.91-.98,1.92-.8,3.07,.26,1.69,.48,3.39,.76,5.08,.08,.48,.33,.94,.45,1.27,1.41,.19,1.7-1.54,3.32-1.27-.73,1.11-1.21,2.07-1.9,2.85-1.18,1.35-1.14,2.88-.75,4.4,.48,1.87,1.17,3.69,1.86,5.85Zm53.03,67.74c1.29,1.06,2.39,1.81,3.31,2.73,3.41,3.45,7.28,6.34,11.06,9.35,2.92,2.33,5.89,4.61,8.69,7.09,1.99,1.77,3.95,3.54,6.32,4.79,2.75,1.45,4.84,3.61,6.75,6.01,1.79,2.25,3.7,4.42,5.62,6.57,.56,.63,1.29,1.14,2.02,1.58,.82,.49,1.64,.36,2.34-.35,.67-.68,1.34-1.32,.98-2.43-.47-1.43-1.04-2.83-2.23-3.78-2.61-2.09-5.2-4.22-7.95-6.09-3.56-2.42-7.1-4.82-9.71-8.33-.23-.31-.54-.57-.84-.81-2.74-2.18-5.5-4.35-8.24-6.54-.73-.58-1.49-1.15-2.17-1.79-3.57-3.36-7.12-6.75-10.69-10.11-.21-.2-.52-.29-.74-.41-1.44,.81-2.79,1.56-4.52,2.53Zm-64.1-43.32c1.15,.99,1.92,.7,2.61-.13,.79-.96,1.5-2,2.34-2.91,1.58-1.71,3.36-3.26,4.81-5.07,1.81-2.26,3.84-4.27,5.92-6.27,3.51-3.35,7.3-6.34,11.37-8.92,2-1.27,3.78-2.71,5.46-4.34,1.73-1.68,2.3-3.85,2.79-6.06,.23-1.05-.45-1.87-1.56-1.83-.73,.02-1.53,.3-2.16,.69-.71,.44-1.29,1.12-1.9,1.72-1.66,1.64-3.27,3.3-5.39,4.43-1.65,.88-2.92,2.26-4.11,3.74-2.04,2.55-4.25,4.97-6.4,7.43-1.13,1.29-2.33,2.52-3.4,3.85-1.8,2.24-3.56,4.48-5.77,6.39-2.18,1.89-3.66,4.39-4.63,7.28Zm10.18-62.92c.86-.66,1.56-1.5,2.45-1.8,1.27-.43,1.86-1.32,2.42-2.35,1.99-3.67,1.21-7.43,.19-11.11-.61-2.2-3.17-2.91-4.84-1.35-1.86,1.74-3.2,3.8-2.46,6.61,.19,.71,.05,1.54-.08,2.3-.43,2.52,.53,4.74,1.44,6.97,.12,.3,.56,.48,.88,.73Zm70.16,7.57c.92-1.18,1.96-1.23,2.95-1.34,2.8-.3,5.08-1.45,6.51-3.96,1.06-1.86,1.89-3.77,.89-5.96-.32-.7-.75-.97-1.46-.72-.44,.15-.89,.32-1.28,.58-2.39,1.61-4.81,3.19-7.12,4.9-.63,.47-1.03,1.34-1.36,2.1-.65,1.49-1.11,3.08-1.8,4.55-.72,1.52-1.62,2.95-2.6,4.71,.81,.18,1.55,.6,2.06,.4,1.85-.7,3.69-1.49,5.22-2.94-.75-.86-1.34-1.54-2.02-2.32Zm-14.78,84.21c.21,.6,.23,.85,.36,1.02,1.04,1.54,2.13,3.05,3.15,4.6,.46,.69,1.09,.79,1.82,.8,3.62,.05,7.15,.52,10.37,2.31,1.01,.57,1.97,.37,2.91-.05,.97-.43,1.2-1.01,.9-2.08-.51-1.85-1.9-2.83-3.59-3.37-1.55-.5-3.15-.88-4.75-1.23-3.19-.7-6.39-1.35-9.6-1.99-.42-.08-.87-.01-1.57-.01Zm1.2-64.61c-1.38-2-3.7-2.53-5.66-1.15-1.26,.89-2.33,2.05-3.46,3.12-.85,.8-1.68,1.61-2.47,2.46-.59,.63-1.85,1.08-1.25,2.19,.55,1.03,1.72,.68,2.53,.32,2.54-1.14,5.03-2.41,7.53-3.66,1.39-.7,2.24-1.88,2.79-3.27Zm-56.29,17.46c.42-.28,.72-.41,.9-.63,2.5-3.08,4.99-6.17,7.48-9.27,.24-.3,.56-.63,.61-.98,.06-.39-.05-.89-.28-1.19-.11-.15-.81-.08-1.01,.12-.77,.77-1.49,1.59-2.14,2.46-1.14,1.5-2.34,2.8-4.13,3.65-2.08,.99-2.51,3.1-1.43,5.83Zm38.28-4.05c-.04,1.75,.13,2.28,.87,2.52,.88,.28,1.78,.16,2.33-.58,.96-1.28,1.82-2.65,2.63-4.04,.17-.3,.07-.95-.15-1.26-.82-1.18-2.94-1.43-3.91-.41-1.01,1.06-1.93,2.24-1.77,3.76Zm16.8-17.78c1.9,1.16,3.37,2.02,4.95,.9,1.67-1.19,2.66-2.98,3.33-4.9,.12-.34-.04-.9-.28-1.21-.12-.16-.73-.08-1.04,.07-2.52,1.24-4.36,3.35-6.97,5.13Z"/>
      <path class="cls-2" d="M116.85,470.4c.78,.82,1.56,1.64,2.63,2.78-1.17,.28-1.97,.48-2.76,.66-1.88,.43-3.73,1.19-5.71,.46-.07-.02-.16,0-.23,.02-2.82,1.25-5.88,.36-8.78,.98-.23,.05-.5,.17-.68,.09-1.72-.77-3.47-1.16-5.36-.74-.13,.03-.34-.05-.43-.15-1.21-1.35-2.92-2.33-3.3-4.68,2.47,.57,4.76,1.1,7.13,1.65,.38-1.13,.58-2.13-.09-3.01-.38-.51-1-.78-1.72-.06,.26,.55,.53,1.13,.83,1.78-1.78,.66-2.55-1.24-3.95-1.54-.49-.1-.98-1.01-1.13-1.63-.17-.7,.04-1.49,.09-2.4-2.99-.84-6.5-1.3-6-6.07,.94-.5,2.01-1.07,3.25-1.73,.49,1.04,.9,1.94,1.33,2.83,1.09,2.26,1.94,2.7,4.47,2.28,.61-.1,1.24-.21,1.82-.42,3.2-1.14,6.4-1.29,9.57,.06,1.29,.55,2.55,.54,3.89,.31,2.32-.4,3.52-1.63,3.8-4.02,.04-.38,.06-.76,.09-1.12,.75-.57,1.4-.28,2,.08,1.33,.8,2.77,.87,4.27,.94,2.4,.1,4.8,.39,7.19,.66,2.01,.22,4.01,.5,6,.81,.63,.1,1.24,.39,2.29,.74-2.21,1.28-4.39,.74-6.32,1.73,1.25,1.12,2.73,1.29,4.08,1.74,2.35,.78,4.71,1.53,7.07,2.31,.29,.1,.58,.25,.83,.43,.94,.68,.9,1.82-.08,2.47-1.43,.95-2.97,.92-4.48,.31-1.08-.44-2.07-.89-3.3-.92-.95-.02-1.99-.45-2.81-.98-1.13-.73-2.19-1.13-3.28-.51-1.8-1.26-3.5-2.36-5.09-3.58-.82-.63-1.43-.64-2.31-.12-1.13,.67-2.36,1.14-3.82,1.83,.13,.76,.28,1.61,.49,2.78,1.12-.5,1.94-.88,2.78-1.23,1.13-.47,1.95-.35,2.28,.33,.41,.82,0,2.09-.88,2.65-1.03,.66-2.18,.78-3.37,.72-.73-.04-1.46,0-2.19,0-.04,.17-.07,.34-.11,.51Z"/>
      <path class="cls-2" d="M121.81,479.82c-.65,.26-1.26,.65-1.91,.73-2.31,.27-4.64,.45-6.96,.64-1.99,.17-3.97,.61-5.99,.04-.56-.16-1.22,.11-1.84,.13-.91,.03-1.83,.02-2.74,0-.54-.02-1.14-.3-1.59-.14-1.56,.58-3.06-.05-4.57-.1-1.43-.05-2.38-.97-2.34-1.84,.04-1.04,1.03-1.83,2.58-1.82,1.55,0,3.09,.28,4.63,.29,1.85,.01,3.71-.09,5.56-.22,1.23-.08,2.45-.38,3.68-.43,2.63-.1,5.24-.13,7.89,.19,1.79,.21,2.81,.9,3.6,2.55Z"/>
      <path class="cls-2" d="M106.67,420.88c-.21-3.17-.42-6.34-.62-9.51-.12-1.86-.3-3.72-.32-5.58-.01-1.39,.29-2.78,.3-4.17,.03-9.51,.06-19.03-.01-28.54-.02-2.78-.5-5.55-.58-8.33-.07-2.53,.13-5.06,.2-7.59,.01-.46,.08-.97-.09-1.38-.6-1.51,.11-2.67,.92-4.2,.26,.69,.47,1.07,.55,1.48,.1,.53,.14,1.08,.14,1.63,.11,8.42,.28,16.83,.31,25.25,.03,11.14,.06,22.27,0,33.41-.01,2.48-.27,4.95-.42,7.43-.13,.04-.25,.07-.38,.11Z"/>
      <path class="cls-2" d="M105.08,459.11c-.9,.12-1.98,.33-2.64-.92-.1-.2-.55-.27-.84-.3-1.84-.2-3.68-.36-5.52-.55-.53-.06-1.11-.08-1.58-.3-1.16-.52-1.49-1.49-.97-2.67,.25-.57,.54-1.12,.85-1.66,1.21-2.11,1.83-2.2,4.11-1.37,1.65,.6,3.43,.87,5.17,1.18,1.65,.3,1.62,.25,1.96,1.98,.3,1.51,.94,3-.54,4.61Z"/>
      <path class="cls-2" d="M152.43,464.22c.95,.59,1.47,.92,2,1.23,1.48,.87,2.32,2.2,2.11,3.85-.25,1.95-1.33,3.48-3.3,4.16-1.98,.68-4.02,1.19-5.95,1.97-1.77,.71-3.26,.22-4.97-.5,1.73-1.71,3.94-2.11,5.87-3.06,.9-.44,1.91-.75,2.67-1.36,.89-.71,1.69-1.61,2.28-2.58,.29-.48,.05-1.31-.06-1.97-.07-.46-.32-.88-.65-1.75Z"/>
      <path class="cls-2" d="M126.91,477.91c-1.37-.24-2.46-.43-4.02-.7,6.45-1.24,12.49-1.79,18.61-2.31-.55,.93-.91,1.74-1.45,2.38-.37,.44-.97,.8-1.53,.93-3.4,.8-8.74,1.89-13,1.41,.41-.5,.78-.95,1.4-1.71Z"/>
      <path class="cls-2" d="M52.56,468.25c.91,.72,1.66,1.4,2.5,1.95,1.13,.75,2.21,1.41,1.8,3.1-.1,.39,.47,.92,.66,1.42,.34,.91-.2,1.78-1.17,1.75-2.68-.06-4.92-1.24-6.81-3.06-.64-.62-.69-1.47-.25-2.36,.68-1.39,1.58-2.45,3.28-2.81Z"/>
      <path class="cls-2" d="M75.88,463.57c.31-.86,.48-1.34,.72-1.99-1.92-.26-3.72-.49-5.51-.73-.02-.12-.04-.24-.07-.36,.69-.23,1.36-.53,2.06-.67,3.51-.68,7.02-1.37,10.55-1.92,.99-.16,2.18-.47,3.17,.65-3.33,2.17-6.46,4.57-10.93,5.03Z"/>
      <path class="cls-2" d="M130,469.51c-1.49,3.3-5.87,4.92-9.3,3.62,.56-.49,.99-1.02,1.54-1.31,1.85-.95,3.72-1.87,5.65-2.64,.51-.21,1.26,.18,2.11,.33Z"/>
      <path class="cls-2" d="M177.31,169.59c1.33-.38,2.19,.42,3.15,1.12,1.8,1.33,2.84,3.07,3.13,5.25,.29,2.2-1.56,3.65-3.55,2.63-2.47-1.26-4.48-3.11-5.78-5.6-.96-1.84-.21-3.15,1.89-3.4,.38-.05,.78,0,1.16,0Z"/>
    </g>
  </g>
</svg>