<?xml version="1.0" standalone="no"?>
<!DOCTYPE svg PUBLIC "-//W3C//DTD SVG 20010904//EN"
 "http://www.w3.org/TR/2001/REC-SVG-20010904/DTD/svg10.dtd">
<svg version="1.0" xmlns="http://www.w3.org/2000/svg"
 width="192.000000pt" height="192.000000pt" viewBox="0 0 192.000000 192.000000"
 preserveAspectRatio="xMidYMid meet">

<g transform="translate(0.000000,192.000000) scale(0.100000,-0.100000)"
fill="#000000" stroke="none">
<path d="M1085 1911 c-3 -6 4 -12 17 -15 13 -2 65 -11 117 -21 123 -21 213
-58 251 -101 16 -19 30 -43 30 -53 0 -53 -87 -108 -222 -142 -116 -29 -372
-37 -484 -16 -182 35 -255 108 -176 178 44 40 120 60 247 66 190 9 350 -30
350 -86 0 -35 -45 -58 -136 -71 -89 -12 -213 1 -241 27 -17 15 -17 18 -3 32
12 12 36 16 100 15 81 0 104 7 69 20 -9 3 -52 6 -97 6 -246 0 -248 -112 -2
-140 146 -16 350 8 437 52 112 55 31 128 -180 163 -268 44 -620 17 -793 -61
-63 -28 -79 -46 -79 -88 0 -31 36 -60 103 -82 77 -25 158 -68 189 -101 42 -44
76 -130 88 -223 20 -157 40 -191 169 -288 46 -35 40 -56 -24 -82 -61 -25 -73
-46 -54 -92 12 -29 11 -32 -15 -53 l-28 -22 27 -25 c26 -25 26 -26 11 -56 -22
-43 -20 -66 11 -113 55 -83 28 -142 -81 -173 -69 -20 -132 -68 -173 -130 -17
-27 -45 -63 -61 -80 -44 -46 -55 -71 -37 -86 20 -16 145 -37 351 -56 154 -15
201 -15 334 -5 282 22 430 49 430 80 0 5 -17 26 -39 46 -21 20 -51 61 -66 91
-35 69 -86 109 -176 139 -39 13 -81 32 -92 44 -28 28 -26 80 7 135 31 53 32
65 9 105 -17 29 -17 30 7 56 l25 27 -24 19 c-22 18 -23 23 -13 57 14 46 -3 77
-49 87 -39 9 -71 39 -63 60 4 9 30 31 59 50 56 35 96 81 114 129 6 15 18 74
27 129 29 199 78 258 275 336 31 12 67 33 79 46 30 32 30 88 -1 122 -54 57
-205 111 -372 133 -45 5 -96 13 -114 15 -17 3 -34 1 -38 -4z"/>
</g>
</svg>
