<?xml version="1.0" encoding="UTF-8"?>
<svg id="Capa_1" data-name="Capa 1" xmlns="http://www.w3.org/2000/svg" viewBox="0 0 329 327">
  <defs>
    <style>
      .cls-1 {
        fill: #fafafa;
      }

      .cls-2 {
        fill: #1c2429;
      }
    </style>
  </defs>
  <path class="cls-1" d="M196.63,317.07c-4.28,0-8.4-1.42-11.93-4.12-3.66-2.81-5.91-6.3-6.69-10.39-.75-3.91-.26-7.9,1.41-11.54,1.34-2.94,3.08-5.04,4.34-6.58,1.17-1.41,1.85-2.64,2.21-3.97,.24-.86,.54-1.73,.85-2.57l.21-.59c.1-.46,.1-.72,.1-.73l-.08-.15c-.62-2.31-1.56-5.8-1.2-9.91,.05-.59,.06-1.19,.07-1.78,.03-1.4,.08-2.78,.23-4.16,.21-1.88,.59-3.76,1-5.62l.48-2.35c.25-1.29,.51-2.57,.85-3.84,.85-3.1,1.98-5.86,2.97-8.29,.18-.44,.36-.87,.53-1.31-.32-.16-2.41-1.16-3.11-1.52l-.62-.32c-.03,1.99-.34,3.9-.91,5.76-.13,.65-.24,1.14-.36,1.64-1.42,5.32-4.42,9.77-8.7,12.9-1.02,.89-1.93,1.6-2.9,2.2-2.88,1.77-6.31,3.73-10.71,4.72-2.05,.46-3.85,.54-5.23,.58-.41,1.04-.88,2.09-1.42,3.17-.41,.83-2.05,4.32-2.05,4.32-.57,1.19-1.18,2.29-1.8,3.33,5.27,.85,9.65,4.57,11.45,9.89,1.26,3.74,1.93,9.62-2.1,16.33-1.42,2.35-3.48,4.19-5.98,5.37-1.98,.94-6.12,2.9-11.28,2.92,0,0-5.13,0-5.14,0-2.64,0-4.52-.35-5.89-.61-.86-.16-1.35-.18-1.83-.21l-.62-.05-.77,.03c-.8,0-1.84-.03-3.06-.21-.71,.1-1.44,.18-2.16,.2-.77,.03-1.55,.04-2.32,.04s-1.49-.01-2.24-.04c-.72-.02-1.51-.1-2.3-.19l-.49-.05-1.19,.03c-.7,0-1.4-.03-2.1-.1-6.94-.62-12.69-4.47-15.7-10.57-1.65-3.34-2.16-7.06-1.49-10.74,.49-2.69,1.29-5.03,2.45-7.17,1.95-3.62,4.49-6.18,6.48-8l.93-1.09c.32-.36,.66-.71,.94-1.1,1.25-1.88,1.9-3.2,2.09-4.26,.39-2.11,.97-3.92,1.45-5.37l1.67-5.29c-2.35-1.17-4.88-2.52-7.4-4.33-.86-.61-1.71-1.24-2.55-1.87-1.03-.77-2.07-1.53-3.12-2.27-.2-.14-.41-.28-.62-.43-1.57,.58-3.25,.89-4.98,.89-4.95,0-9.59-2.58-12.39-6.89-.58-.88-1.88-2.87-2.47-5.67-.29-1.4-.62-3.26-.64-5.42,0-.11-.03-.3-.09-.53-.47-1.9-.5-3.57-.48-4.8,.02-1.29-.05-1.68-.07-1.78-.45-1.62-.61-3.02-.71-3.95l-.06-.51c-.57-2.35-.55-4.61-.54-6.1,0-2.01,.27-3.66,.77-5.29,.2-.67,.45-1.32,.74-1.94-4.79-.6-9.12-2.86-12.39-6.54-.38-.43-.8-.81-1.22-1.2-2.28-2.12-4.16-4.71-5.6-7.71l-.51-1.06c-.9-1.85-1.79-3.69-2.63-5.57-1.31-2.94-1.82-5.75-2.13-7.87-.27-1.84-.65-4.37-.2-7.32,.06-.41,.06-1.38,.05-2.16,0-1.46,.01-2.92,.15-4.37,.22-2.46,.89-4.45,1.33-5.76l.22-.66c1.57-5.26,4.26-10.33,8.22-15.49,2.75-3.58,6.46-6.1,10.72-7.31l.41-.15c1.2-.44,3.15-1.15,5.66-1.38,.9-.15,1.72-.25,2.54-.27,.72-.03,1.45-.05,2.18-.06-1.05-6.35,1.43-12.38,6.91-16.36,2.14-1.55,4.44-2.79,7.02-3.77-.53-.37-1.05-.74-1.58-1.09-1.33-.88-2.87-1.8-4.71-2.79-2.98-1.61-6.38-3.44-9.71-5.98-5.5-4.22-8.53-10.17-8.53-16.78,0-8.13,6.21-14.84,14.45-15.63,.68-.07,1.36-.1,2.03-.1,1.22,0,2.46,.1,3.71,.32-.3-.37-.59-.71-.87-1.05-1.22-1.4-2.36-2.89-3.49-4.37-.56-.74-1.12-1.48-1.71-2.2-.27-.34-.57-.65-.86-.96-.6-.64-1.19-1.28-1.75-1.95l-.6-.71c-1.12-1.31-2.52-2.95-3.79-5.02-1.36-2.22-2.35-4.72-3.05-7.67-1.1-4.64-.04-9.41,2.9-13.14,3-3.8,7.52-5.98,12.4-5.99,4.17,0,8.07,1.26,11.97,3.84,2.17,1.44,3.81,3,5.12,4.25,.38,.36,.76,.72,1.15,1.07,3.25,2.86,6.37,5.79,9.28,8.72,.88,.89,1.83,1.73,2.78,2.56,1.64,.84,3.18,1.85,4.64,3.07,2.85-3.95,7.54-6.55,12.63-6.55,.96,0,2.19,.14,3.12,.35,.39,.09,.77,.19,1.15,.29-.41-2.78-.36-5.58-.32-7.82,.01-.78,.03-1.56,.02-2.34-.05-3.27,.72-6.63,2.32-9.96,2.57-5.4,7.8-8.78,13.63-8.78,1.83,0,3.66,.33,5.44,.98,5.02,1.83,8.94,5.75,11.01,11.06,1.35,3.47,2.16,6.71,2.49,9.93l.14,1.35c.23,1.29,.35,2.62,.45,3.95,.03,.41,.04,.84,.11,1.26,.48,1.91,.68,3.72,.85,5.18l.13,1.13c.2,1.76,.4,3.43,.74,4.56,.36,1.21,.58,2.49,.66,3.81,.49-.52,1.01-.99,1.56-1.42l.41-.47c1.12-1.26,2.59-2.77,4.58-4.12,1.67-1.71,3.25-2.85,4.46-3.71l1.38-.99c1.36-.97,2.72-1.94,4.02-2.97l.1-.14c.37-.47,.74-.93,1.13-1.38l.8-.97c1.43-1.76,3.58-4.41,6.93-6.51,.65-.41,1.46-1.12,2.24-1.83,1.07-.97,4.31-3.92,9.35-4.86,1.05-.2,2.1-.29,3.11-.29,3.12,0,6.16,.91,8.79,2.64,.71,.46,1.37,.99,1.97,1.57,1.02-.2,2.04-.31,3.07-.31,7.51,0,13.71,5.42,15.08,13.19,1.17,6.61-2.09,11.28-3.31,13.03-1.08,1.56-2.08,2.9-3.14,4.19-1.22,1.48-2.49,2.47-3.17,3-.97,.78-1.88,1.44-2.79,2.09-.67,.48-1.58,1.14-1.84,1.42-.96,1.03-1.92,1.8-2.71,2.38,.21,1.09,.45,2.19,.76,3.16l.15,.47c.39,1.21,.97,2.99,1.2,5.23l.07,.22c.49,1.51,.96,3.04,1.3,4.6,.14,.64,.35,1.25,.54,1.87,.22,.7,.43,1.41,.63,2.12,1.66,5.96-.17,12.19-4.78,16.56-.15,1.25-.44,2.45-.86,3.6,.04,.2,.08,.4,.12,.6,.59,3.02,.17,6.05-1.25,9.05-.77,1.63-1.63,3.02-2.55,4.2,.96,3.27,1.27,6.34,.95,9.36l-.12,1.02c.44-.05,.88-.1,1.31-.15,1.81-.24,3.65-.33,5.47-.39,.64-.02,2.67-.02,2.67-.02h.76c2.71-.07,5.07-.13,7.4-.25,.6-.13,1.03-.22,1.46-.3,1.08-.19,2.18-.3,3.28-.3,1.94,0,3.83,.34,5.61,1,5.61,.89,10.13,4.83,11.9,10.46,.37,1.18,.61,2.36,.83,3.55l.09,.5c.61,3.15,.56,5.92,.51,8.14-.02,.75-.05,1.51,0,2.25,.52,8.62-5.21,16.1-13.93,18.18-.67,.16-1.32,.29-1.98,.41-.29,.06-.58,.1-.87,.18-.48,.12-.97,.27-1.46,.41-1.09,.32-2.18,.63-3.3,.89-1.31,.3-2.64,.46-3.98,.57l-.56,.05c-2.44,.25-4.47,.49-6.17,.94-2.58,.68-4.88,.77-6.8,.77h-.58c-1.12,0-2.1,.1-3.1,.23-.99,.12-2.31,.47-3.71,.84-.32,.08-.63,.16-.95,.25-.47,1.89-1.27,3.71-2.39,5.39-.89,1.35-2.15,3.26-4.19,5.03-.06,.07-.12,.15-.18,.22,2.84,2.91,5.68,5.83,8.54,8.74l.54,.46c.48,.41,.95,.81,1.41,1.24,1.74,1.63,3.48,3.25,5.19,4.92,.55,.52,1.06,1.11,1.55,1.73l.39,.25c3.86,2.55,6.74,6.3,8.35,10.85,.91,2.58,1.42,5.18,1.53,7.75,.19,4.42-1.03,8.84-3.55,12.78l-.44,.68c-.82,1.28-1.66,2.55-2.34,3.92l-1.64,3.19c-.71,1.35-1.41,2.69-2.08,4.06-1.07,2.18-2.24,4.06-3.27,5.72-.23,.49-.37,1.05-.54,1.59-.3,.97-.48,1.98-.68,2.98l-.15,.73c-.21,1.04-.4,2.08-.57,3.12,0,.56-.04,1.11-.11,1.65,0,0-.58,4.36-.69,5.29-.2,1.82-.57,3.49-.98,5.02,2.56,.04,5.09,.57,7.71,1.63,4.83,1.94,8.24,6.23,9.35,11.77,1.37,6.96-1.7,13.8-7.83,17.47l-.61,.37c-1.76,1.09-4.71,2.92-8.74,3.6l-.71,.13c-1.1,.21-2.19,.41-3.3,.51-.69,.06-1.41,.09-2.13,.09h-1.72c-1.57,.05-3.14,.1-4.7,.2-.7,.16-1.23,.28-1.77,.37-1.3,.24-2.74,.5-4.53,.5h-.09c-.3,.06-1.63,.41-1.63,.41-2.36,.59-4.77,1.07-7.17,1.53-1.88,.36-3.85,.74-6.09,.81-.14,0-.47,0-.61,0"/>
  <path class="cls-2" d="M173.42,100.35c-.07-.5-.01-.88-.18-1.09-.95-1.23-1.86-2.49-3.4-3.1-.88-.35-1.65-.96-2.51-1.35-1.15-.52-2.34-.95-3.52-1.42-.21-.08-.42-.17-.62-.26-1.23-.54-2.43-1.16-3.7-1.63-1.37-.51-2.57-1.51-3.8-2.35-1.16-.8-2.29-1.65-3.36-2.55-.56-.46-1.13-1.01-1.42-1.65-.67-1.43-1.75-2.54-2.66-3.79-.32-.44-.71-.9-.82-1.4-.45-2.15-1.66-4.01-2.27-6.1-.69-2.39-1.63-4.7-2.36-7.08-.69-2.24-1.34-4.51-1.84-6.8-.22-1.02-.11-2.13-.03-3.19,.09-1.07,1.8-2.29,2.85-2.05,1.81,.41,3.26,1.27,4.11,3.06,.64,1.36,1.25,2.71,1.67,4.16,.66,2.3,1.84,4.32,3.29,6.22,1.43,1.88,2.39,4.03,3.37,6.17,.43,.94,1,1.83,1.63,2.66,.72,.96,1.69,.98,2.64,.2,1.19-.98,1.74-2.35,2.06-3.77,.26-1.15,.26-2.36,.31-3.54,.12-2.95,.22-5.89,.27-8.83,.01-1-.17-2-.26-3-.08-.95-.14-1.92-.2-2.86-.13-1.99-.91-3.79-1.28-5.69-.18-.94-.27-1.89-.47-2.82-.42-1.91-.04-3.87-.31-5.77-.43-2.95-.16-5.89-.2-8.84-.03-1.45,.42-2.86,1.06-4.18,.62-1.3,1.67-1.73,3.01-1.24,1.74,.63,2.77,1.98,3.41,3.63,.82,2.11,1.44,4.29,1.68,6.56,.08,.77,.13,1.54,.27,2.3,.36,1.97,.23,3.99,.72,5.96,.35,1.4,.48,2.86,.65,4.31,.29,2.43,.54,4.87,1.24,7.23,.13,.43,.16,.91,.15,1.36-.05,1.29,.25,2.53,.46,3.79,.44,2.55,1.09,5.08,.97,7.72-.05,.93,.25,1.88,.46,2.81,.56,2.49,1.63,4.78,2.8,7.06,.91,1.77,1.53,3.67,1.73,5.69,.07,.71,.41,1.38,.63,2.08,.18,.56,.35,1.12,.56,1.66,.51,1.35,1.09,2.68,1.57,4.05,.42,1.23,.73,2.51,1.11,3.76,.28,.91,.51,1.84,.91,2.69,.49,1.06,.79,2.13,.75,3.29,0,.23-.04,.47,0,.69,.18,.84,.31,1.69,1.31,2.07,1.01,.38,1.9,.15,2.7-.41,.72-.5,1.26-1.18,1.49-2.07,.1-.39,.25-.77,.41-1.15,.39-.99,.72-1.96,.26-3.04-.14-.32-.07-.73-.07-1.1,0-1.52,.03-3.05-.01-4.58-.06-2.11-.03-4.24-.3-6.33-.48-3.64-.13-7.28-.21-10.92-.02-.79,.28-1.61,.55-2.37,.95-2.71,2.43-5.16,4-7.55,.1-.15,.23-.3,.39-.4,.84-.51,1.38-1.29,2.02-2,.82-.92,1.69-1.8,2.82-2.39,.39-.2,.71-.58,1.02-.92,1.01-1.16,2.26-2,3.49-2.89,2.06-1.48,4.15-2.95,6.12-4.54,.91-.73,1.57-1.78,2.35-2.67,1.52-1.76,2.83-3.75,4.85-5.01,1.48-.92,2.78-2.05,4.07-3.22,.86-.78,1.79-1.48,3.03-1.72,.93-.18,1.72-.04,2.47,.46,.66,.43,.9,1.86,.33,2.58-.83,1.04-1.78,1.98-2.69,2.95-.49,.52-1.02,1.01-1.52,1.52-.1,.1-.16,.23-.27,.31-1.62,1.33-2.67,3.13-3.91,4.76-.97,1.27-1.04,3.49-.14,4.77,.58,.82,1.61,1.15,2.53,.62,1.3-.74,2.55-1.55,3.77-2.42,1.04-.74,1.98-1.61,2.99-2.39,.79-.62,1.57-1.25,2.4-1.8,2.42-1.58,4.31-3.67,6.01-5.96,.38-.5,.84-1.05,1.39-1.28,2.11-.91,3.28,.56,3.58,2.24,.26,1.46-.58,2.54-1.33,3.62-.75,1.08-1.53,2.14-2.37,3.16-.4,.49-.94,.86-1.43,1.26-1.95,1.57-4.15,2.82-5.88,4.69-.61,.65-1.45,1.09-2.19,1.62-.22,.15-.52,.25-.66,.46-1.45,2.13-2.95,4.21-3.41,6.88-.23,1.37-.05,2.58,.19,3.88,.34,1.78,.71,3.55,1.24,5.28,.41,1.34,.95,2.66,.86,4.12-.01,.21,.13,.43,.2,.65,.47,1.55,1.04,3.07,1.38,4.67,.34,1.58,.91,3.12,1.34,4.69,.43,1.55-.24,2.98-1.53,4.03-1.12,.91-2.44,.91-3.7,1.19-.99,.23-1.1,.2-1.01,1.23,.06,.71,.34,1.4,.53,2.09,.18,.66,.46,1.29,.54,1.95,.13,1.03,.02,2.03-.89,2.75-.1,.08-.12,.25-.21,.35-.97,.96-.69,1.98-.28,3.09,.37,1.01,.61,2.08,.81,3.14,.06,.32-.1,.72-.25,1.04-.99,2.09-1.94,3.49-4.79,2.83-1.77-.41-3.25-1.33-4.73-2.29-.97-.62-1.95-1.19-3.15-1.16-.76,.02-1.4,.78-1.15,1.5,.73,2.16,1.82,4.09,3.85,5.3,.46,.27,1.05,.36,1.46,.68,1.22,.96,2.51,1.88,3.53,3.03,.73,.81,1.22,1.92,1.56,2.98,.5,1.56,.82,3.19,.64,4.86-.17,1.68-.48,3.35-.51,5.03-.03,2.15-.34,4.32,.23,6.46,.32,1.21,1.12,2.08,2.04,2.86,1.09,.94,2.34,1.31,3.79,1.2,1.06-.08,2.13,.01,3.19-.02,2.33-.09,4.66-.22,6.97-.52,1.45-.19,2.92-.24,4.38-.3,1.2-.05,2.41,.02,3.61-.01,2.62-.07,5.24-.15,7.86-.29,.81-.04,1.6-.3,2.4-.44,.77-.13,1.52-.2,2.29,.11,.71,.29,1.47,.52,2.23,.6,1.04,.1,1.51,.76,1.78,1.6,.27,.86,.4,1.76,.57,2.65,.56,2.88,.12,5.79,.29,8.69,.16,2.71-1.73,4.31-4.05,4.86-1.01,.24-2.05,.39-3.05,.65-1.49,.38-2.95,.88-4.44,1.22-.97,.22-1.98,.25-2.98,.36-2.75,.29-5.49,.6-8.19,1.32-1.26,.34-2.63,.34-3.95,.33-1.62-.01-3.21,.14-4.8,.33-2.79,.35-5.46,1.26-8.19,1.87-2.03,.45-4.1,.76-6.14,1.18-.75,.15-1.46,.51-2.22,.62-.75,.11-1.52,.05-2.29,.03-.5,0-1.02-.18-1.5-.1-1.56,.28-3.1,.66-4.65,.97-.49,.1-1.01,.07-1.49,.2-.74,.21-1.46,.49-2.17,.77-1.1,.44-2.18,.88-3.42,.82-1.04-.04-2.01,.19-2.3,1.44,.72,1.21,1.87,.69,2.87,.7,.31,0,.62-.21,.92-.2,1.21,.05,2.35-.19,3.5-.53,.77-.23,1.62-.24,2.43-.31,2.23-.2,4.46-.36,6.69-.59,1.11-.12,1.81,.21,2.18,1.18,.54,1.43,.41,2.84-.41,4.06-.69,1.04-1.34,2.16-2.48,2.85-.3,.18-.51,.52-.71,.82-.67,.99-1.5,1.73-2.6,2.29-1.6,.8-3.35,1.12-4.97,1.8-2.4,1.01-4.98,1.31-7.51,1.78-1.69,.31-3.35,.76-5.03,1.12-.57,.12-1.23,.37-1.73,.2-.91-.32-1.68-.18-2.5,.17,.05,.97,.55,1.44,1.62,1.55,.93,.1,1.79-.25,2.69-.39,.62-.09,1.28-.17,1.88-.05,.92,.19,1.78,.18,2.71-.02,1.42-.3,2.86-.57,4.31-.63,2.78-.12,4.8,1.23,6.13,3.61,.81,1.45,1.83,2.72,2.97,3.9,3.63,3.75,7.27,7.48,10.93,11.2,.74,.75,1.59,1.39,2.36,2.1,1.68,1.57,3.36,3.15,5.02,4.75,.39,.38,.68,.85,1.02,1.28,.76,.96,1.8,1.55,2.79,2.2,1.62,1.07,2.65,2.59,3.29,4.38,.46,1.28,.75,2.61,.81,3.98,.09,1.94-.52,3.7-1.53,5.29-1.2,1.88-2.42,3.73-3.43,5.72-1.25,2.48-2.57,4.91-3.79,7.4-.82,1.67-1.8,3.23-2.78,4.8-.82,1.32-1.31,2.89-1.78,4.4-.49,1.59-.8,3.25-1.13,4.88-.31,1.51-.57,3.03-.82,4.55-.07,.41,.02,.84-.03,1.25-.22,1.8-.5,3.6-.7,5.41-.36,3.22-1.68,6.2-2.51,9.29-.83,3.09,.08,5.53,1.74,7.92,.58,.82,1.62,1.14,2.51,1.27,1.47,.21,2.77,.84,4.16,1.2,.61,.16,1.26,.3,1.88,.25,.94-.07,1.87-.32,2.81-.47,1.44-.24,2.85,.1,4.14,.62,.91,.36,1.32,1.37,1.52,2.33,.34,1.71-.41,3.03-1.8,3.86-1.54,.92-3.03,2.01-4.87,2.32-1.02,.17-2.04,.42-3.08,.52-.92,.09-1.85,0-2.77,.02-2.02,.08-4.04,.15-6.05,.29-.81,.06-1.59,.34-2.39,.47-.85,.14-1.71,.35-2.57,.32-1.63-.05-3.14,.41-4.68,.8-2.24,.56-4.51,1-6.77,1.44-1.25,.24-2.51,.49-3.77,.53-1.57,.05-3-.48-4.28-1.47-.91-.69-1.65-1.46-1.86-2.56-.24-1.27-.1-2.53,.46-3.75,.66-1.43,1.64-2.62,2.62-3.81,2.14-2.59,3.75-5.44,4.65-8.7,.32-1.17,.86-2.29,1.13-3.47,.51-2.23,.72-4.47,.12-6.76-.52-1.97-1.14-3.99-.96-6.03,.16-1.88,.07-3.77,.27-5.64,.22-2.02,.74-4.01,1.14-6,.25-1.29,.47-2.59,.81-3.85,.92-3.37,2.41-6.52,3.65-9.78,.22-.58,.67-1.07,1-1.62,.79-1.32,1.57-2.65,2.34-3.98,.7-1.21,.54-2.37-.3-3.43-.63-.8-1.4-1.48-2.38-1.81-2.32-.76-4.25-2.24-6.37-3.35-1.36-.71-2.77-1.34-4.14-2.04-1.98-1.01-3.91-2.08-5.91-3.05-1.47-.71-3-1.28-4.48-1.94-.58-.25-1.13-.58-1.69-.86-.69-.36-1.34-.81-2.07-1.04-1.88-.61-3.61-1.47-5.21-2.61-.22-.15-.46-.28-.71-.41-.92-.46-1.85-.28-2.32,.63-.71,1.37-1.34,2.78-1.94,4.2-.11,.25-.03,.64,.07,.92,.22,.64,.46,1.28,.79,1.88,1.7,3.13,2.81,6.49,3.66,9.91,.45,1.83,.68,3.77,.04,5.67-.22,.64-.29,1.32-.46,1.98-.64,2.41-1.9,4.4-3.96,5.87-.67,.47-1.23,1.11-1.93,1.53-2.13,1.31-4.32,2.57-6.77,3.12-1.41,.31-2.91,.24-4.38,.32-1.83,.1-3.66,.16-5.49,.3-.54,.04-.98,.3-1.37,.78-1.18,1.49-1.91,3.2-2.44,4.98-.45,1.48-1.04,2.9-1.72,4.28-.72,1.47-1.4,2.95-2.11,4.42-1.27,2.63-3.01,4.96-4.61,7.38-.91,1.37-1.67,2.8-2.17,4.37-.33,1.03-.72,2.04-1.15,3.04-.39,.92-.32,1.78,.16,2.63,.2,.36,.35,.74,.56,1.1,1.16,1.99,2.85,3.03,5.2,2.83,.14,0,.28,0,.41,0,3.04,.09,6.07,.19,9.11,.27,.88,.03,1.3,.56,1.55,1.3,.68,2.02,.1,3.84-.94,5.57-.09,.15-.26,.26-.42,.34-1.86,.87-3.73,1.67-5.84,1.68-1.76,0-3.52-.02-5.28,0-1.29,.02-2.53-.25-3.79-.48-1.07-.2-2.17-.26-3.26-.36-1.23-.1-2.47,.15-3.7-.25-.54-.17-1.19-.05-1.79,0-.68,.05-1.35,.21-2.03,.24-1.2,.04-2.41,.05-3.61,0-1-.04-2-.23-3-.25-.8,0-1.6,.06-2.4-.01-2.39-.21-4.26-1.25-5.34-3.44-.41-.83-.56-1.7-.36-2.73,.22-1.19,.54-2.29,1.1-3.34,.97-1.79,2.35-3.25,3.84-4.62,.36-.32,.69-.68,1-1.05,.98-1.15,2.06-2.23,2.89-3.47,1.86-2.8,3.45-5.74,4.06-9.13,.3-1.64,.89-3.22,1.39-4.82,1.15-3.71,2.34-7.42,3.5-11.13,.27-.86,.48-1.74,.74-2.61,.32-1.07,.02-1.75-1.01-2.18-1.55-.64-3.15-1.17-4.64-1.92-3.2-1.6-6.5-3.02-9.43-5.12-1.95-1.41-3.86-2.88-5.83-4.25-1.76-1.23-3.5-2.46-5.08-3.93-.7-.65-1.42-1.24-2-2.01-.4-.53-1.01-.92-1.57-1.31-.58-.41-1.36-.1-1.63,.69-.24,.68-.37,1.4-.58,2.08-.17,.56-.32,1.15-.62,1.64-.81,1.33-2.19,1.3-3.05-.03-.27-.41-.56-.85-.66-1.32-.2-.93-.36-1.89-.36-2.84,0-1.2-.18-2.36-.46-3.52-.12-.48-.12-1-.11-1.5,.03-1.83-.04-3.64-.53-5.44-.34-1.22-.31-2.53-.61-3.76-.3-1.23-.25-2.46-.24-3.7,0-.4,.09-.81,.21-1.2,.35-1.13,1.24-1.59,2.29-1.12,.7,.31,1.47,.64,1.97,1.18,1.33,1.44,3.09,2.26,4.64,3.35,2.8,1.97,5.94,3.29,9.13,4.49,.38,.14,.75,.34,1.07,.58,.45,.34,.92,.8,.62,1.39-.25,.51-.63,.95-1.32,1.09-1.55,.32-3.11,.23-4.67,.27-.45,0-.92,.08-1.32,.25-.84,.35-1.03,.83-.7,1.69,.2,.5,.41,1.02,.76,1.42,1.38,1.54,2.69,3.17,4.26,4.51,2.82,2.42,5.66,4.84,8.98,6.63,1.39,.75,2.58,1.88,3.95,2.66,2.56,1.47,5.19,2.81,7.8,4.2,.64,.34,1.31,.63,1.97,.95,.7,.35,1.33,.28,1.84-.35,.51-.64,1.02-1.28,1.54-1.92,.63-.78,1.22-1.6,1.89-2.33,1.52-1.64,2.92-3.38,4.23-5.2,.59-.81,1.31-1.52,1.88-2.34,1.4-1.99,3.35-3.66,3.96-6.13,.42-1.73,1.25-3.45,.59-5.32-.04-.1,.06-.25,.09-.38,.41-1.94,.87-3.88,1.22-5.84,.22-1.29-.23-2.53-.74-3.7-.61-1.42-1.32-2.79-1.93-4.21-.28-.66-.55-1.37-.6-2.08-.1-1.37-.41-2.68-.84-3.98-.56-1.71-.29-3.41,.06-5.13,.38-1.86,1.61-3.23,2.59-4.74,.36-.56,1.1-1,1.76-1.23,1.59-.56,2.17-2.01,3.05-3.2,.3-.4,.53-.85,.78-1.27,.93-1.6,0-3.1-1.41-3.69-.19-.08-.46-.07-.65,0-.9,.33-1.8,.66-2.31,1.56-.09,.15-.18,.36-.32,.43-1.15,.55-1.63,1.68-2.32,2.63-.51,.69-.96,1.45-1.55,2.07-1.03,1.08-1.45,2.41-1.62,3.81-.14,1.19-.68,2.16-1.36,3.07-1.1,1.45-2.32,2.81-3.4,4.28-.72,.98-1.35,2.04-1.92,3.13-1.25,2.42-2.32,4.93-3.67,7.29-1.54,2.69-2.5,5.63-3.89,8.38-.62,1.23-1.52,2.28-2.94,2.72-1.09,.33-2.16-.08-2.55-1.12-.19-.5-.29-1.06-.3-1.6-.03-1.99-.07-3.98,0-5.97,.07-1.82,.56-3.58,1.13-5.3,.88-2.66,1.83-5.3,2.72-7.96,.62-1.84,1.2-3.7,2.16-5.41,.46-.82,.75-1.75,1.05-2.65,.46-1.37-.22-2.24-1.69-2.22-.27,0-.59-.03-.81,.09-1.07,.56-2.23,.44-3.37,.47-2.57,.08-5.16,.03-7.71,.32-1.75,.2-3.49,.11-5.23,.24-1.82,.13-3.62,.39-5.44,.53-1.02,.08-2.04-.05-3.05,.03-1.59,.12-3.16,.36-4.75,.51-1.27,.12-2.55,.26-3.83,.29-1.52,.03-2.99,.36-4.47,.49-1.7,.15-3.3,.6-4.96,.85-2.54,.4-4.91-.21-6.73-2.26-.65-.72-1.35-1.4-2.06-2.06-1.19-1.11-2.07-2.42-2.77-3.87-1.01-2.08-2.03-4.17-2.98-6.28-.62-1.41-.92-2.92-1.14-4.46-.17-1.19-.4-2.39-.22-3.56,.37-2.44,.08-4.88,.3-7.3,.12-1.33,.68-2.62,1.07-3.91,1.25-4.19,3.45-7.88,6.09-11.31,1.01-1.31,2.34-2.28,4-2.75,1.3-.37,2.52-1.02,3.91-1.12,.54-.04,1.08-.2,1.62-.21,3.36-.11,6.73-.1,10.08-.32,2.6-.17,5.22-.3,7.8-.59,2.4-.26,4.78-.13,7.17-.2,4.06-.12,8.11-.15,12.16-.3,1.73-.07,3.44-.36,5.16-.53,1.23-.12,2.46-.18,3.69-.29,.31-.03,.63-.1,.92-.21,.72-.31,.92-.61,.69-1.26-.76-2.07-1.7-3.9-3.9-4.97-3.01-1.47-6.17-2.32-9.41-3-1.11-.23-2.21-.49-3.32-.69-.49-.09-1.03-.22-1.49-.1-2.16,.55-4.37,.69-6.55,.48-1.74-.17-3.49-.1-5.22-.27-1.12-.11-2.39-.14-2.93-1.56-.86-2.22-.3-3.8,1.42-5.04,1.47-1.07,3.09-1.85,4.83-2.44,1.97-.66,3.84-1.6,5.8-2.29,2.23-.79,4.11-2.11,5.89-3.59,1.13-.94,1.91-2.23,2.38-3.62,.32-.94-.12-1.91-.61-2.74-1.27-2.16-2.64-4.18-4.9-5.57-2.89-1.78-5.56-3.91-8.39-5.8-1.85-1.23-3.78-2.35-5.73-3.4-2.75-1.49-5.52-2.98-8-4.88-2.09-1.6-3.46-3.67-3.46-6.53,0-1.65,1.39-2.65,2.78-2.78,1.77-.17,3.45,.25,5.08,.87,2.46,.94,5.01,1.54,7.55,2.2,1.35,.35,2.64,.94,3.97,1.34,1.47,.43,2.97,.79,4.46,1.14,.66,.15,1.35,.28,2.02,.26,.86-.01,1.73-.11,2.58-.3,1.27-.29,2.08-1.46,2.17-2.79,.11-1.6-.21-3.06-1.02-4.47-.6-1.06-.94-2.27-1.53-3.33-1.17-2.1-2.35-4.2-3.68-6.2-1.16-1.74-2.6-3.28-3.78-5-1.4-2.03-2.84-4-4.46-5.86-1.73-1.99-3.24-4.16-4.9-6.21-.86-1.07-1.87-2.02-2.75-3.07-1.14-1.36-2.36-2.69-3.28-4.19-.72-1.17-1.18-2.56-1.5-3.91-.41-1.72,.99-3.24,2.78-3.24,1.8,0,3.37,.74,4.82,1.7,1.8,1.19,3.25,2.81,4.87,4.24,2.97,2.62,5.86,5.32,8.65,8.13,1.17,1.17,2.4,2.28,3.65,3.36,.61,.53,1.28,1.05,2.01,1.39,1.34,.63,2.49,1.47,3.56,2.5,.88,.85,1.93,1.52,2.9,2.28,.78,.62,1.6,1.21,2.33,1.89,1.87,1.76,3.56,3.72,5.7,5.19,.62,.42,1.04,1.14,1.52,1.75,1.55,1.92,3.08,3.84,4.61,5.76,.08,.1,.1,.29,.2,.35,1.79,1.09,2.47,2.95,3.29,4.72,.29,.61,.64,1.21,1.02,1.76,.98,1.42,1.93,2.87,3.01,4.21,1.01,1.25,2.29,2.18,3.86,2.75,.92,.34,1.78,.91,2.56,1.52,1.51,1.19,3.12,2.18,4.91,2.89,2.44,.97,4.89,1.9,7.3,2.93,.82,.35,1.53,.96,2.3,1.44,1.03,.65,2.06,1.33,3.12,1.92,.29,.16,.71,.07,1.29,.11m-81.1,45.26h-5.97c-.32,0-.67-.06-.97,.03-1.59,.5-3.26,.66-4.83,1.32-1.27,.53-2.31,1.21-3.04,2.39-.84,1.35-1.81,2.6-2.6,3.98-1.2,2.1-2.17,4.27-2.83,6.59-.13,.48-.08,1.01-.2,1.48-.58,2.15,.35,3.91,1.44,5.62,.32,.5,.82,.81,1.45,.94,1.28,.28,2.54,.64,3.81,.97,1.63-.64,3.24-.23,4.9-.05,1.43,.15,2.92-.09,4.37-.26,1.84-.21,3.68-.52,5.52-.8,.54-.08,1.07-.2,1.61-.27,1.53-.2,3.1-.25,4.59-.62,2.47-.62,4.96-1.04,7.48-1.34,.9-.11,1.78-.33,2.66-.52,1.91-.42,3.77-1.11,5.78-.88,.27,.03,.62-.14,.86-.31,.8-.61,1.53-1.3,2.34-1.88,1-.7,2.1-1.25,3.09-1.98,1.53-1.14,3.05-2.32,4.48-3.57,.82-.72,1.46-1.64,2.21-2.44,1.62-1.72,2.85-3.66,3.41-5.96,.23-.97,.32-1.98,.38-2.97,.04-.61-.41-1.1-.98-1.12-1.57-.04-3.17-.18-4.71,.03-2.09,.3-4.19,.26-6.28,.47-1.1,.1-2.24,0-3.36,.05-2.62,.1-5.23-.11-7.86,.21-2.26,.27-4.55,.35-6.82,.59-2.1,.21-4.22,.23-6.33,.3-1.2,.04-2.4,0-3.61,0m124.37,13.33c1.66-.1,3.35-.19,5.04-.29,.13,0,.27-.05,.4-.06,1.78-.29,3.44-1.07,5.32-1.12,1.66-.04,3.33-.5,5.02-.48,.23,0,.46,0,.69-.03,1.44-.17,2.88-.37,4.33-.51,1.37-.13,2.74-.13,4.1-.31,2.04-.27,4.07-.48,6.13-.54,1.79-.05,3.57-.18,5.36-.27,.14,0,.27-.03,.41-.05,1.12-.17,2.24-.37,3.36-.49,1.02-.11,1.45-.46,1.84-1.51,.46-1.26,.27-2.56,.17-3.82-.06-.81-.68-1.51-1.47-1.82-.62-.24-1.34-.36-2-.34-2.71,.09-5.42-.17-8.14,.2-2.31,.32-4.67,.24-7.01,.33-.37,.01-.77-.09-1.11,.02-1.87,.59-3.82,.12-5.73,.48-1.83,.35-3.74,.24-5.62,.34-.23,0-.46,.05-.68,.08-1.47,.25-2.94,.54-4.42,.73-.58,.07-1.23,.07-1.77-.13-1.98-.73-4.06-.91-6.11-1.25-.71-.12-1.45-.27-2.08-.6-1.45-.76-2.94-1.4-4.51-1.87-2.21-.65-4.28-1.7-6.56-2.16-1.82-.36-3.56-1.07-5.49-.94-1.7,.11-3.1,.52-4.29,1.89-2.27,2.63-4.24,5.43-5.7,8.59-.8,1.73-1.16,3.52-1.13,5.42,.03,2.32,1.85,3.41,3.65,2.94,1.59-.42,3.16-.55,4.75-.47,1.9,.1,3.69-.52,5.54-.72,1.63-.18,3.19-.75,4.86-.71,1.04,.02,2.09-.16,3.13-.27,1.58-.17,3.16-.46,4.74-.51,1.64-.04,3.3,.15,4.98,.25m-49.85,69.99c-.41,.44-.87,.84-1.21,1.33-.7,1.05-1.32,2.16-2,3.22-2.3,3.64-5.05,6.91-8,10.04-.64,.68-1.07,1.57-1.56,2.38-.13,.22-.14,.53-.13,.8,.01,.6,.42,1.09,1,1.09,.63,0,1.27-.08,1.89-.2,.89-.17,1.76-.42,2.64-.62,.66-.15,1.33-.26,1.99-.42,1.31-.32,2.39-1.09,3.46-1.84,.9-.62,1.61-1.5,2.49-2.14,.71-.52,1.35-1.06,1.8-1.83,1.07-1.86,1.87-3.77,1.1-5.95-.51-1.45-1.1-2.87-1.68-4.29-.3-.74-.79-1.34-1.8-1.57m9.3-106.96c-.34,.23-.84,.43-1.12,.8-.79,1.04-1.51,2.14-2.21,3.25-.56,.89-1.14,1.75-1.88,2.51-.47,.47-.84,1.07-1.17,1.66-.57,1.02-1.12,2.07-1.6,3.14-.28,.61-.44,1.27-.6,1.93-.39,1.63-.69,3.27-1.16,4.88-.22,.74-.46,1.45-.53,2.24-.09,1.03-.31,2.06-.54,3.07-.19,.83-.47,1.64-.72,2.47-.17,.57-.2,1.09,.65,1.34,.21-.38,.46-.76,.64-1.16,.91-1.97,1.79-3.96,2.72-5.93,1.47-3.11,2.56-6.37,3.67-9.61,.81-2.36,1.67-4.69,2.78-6.91,.39-.76,.93-1.45,1.36-2.19,.28-.48,.56-1.01-.28-1.47m-26.36,79.03c0,.19,0,.37,0,.56-.03,1.91,1.08,2.18,2.5,1.54,.33-.15,.64-.35,.95-.53,.27-.16,.52-.41,.81-.48,2.24-.59,3.38-2.33,4.42-4.17,.45-.79,.53-1.65,.46-2.53-.08-1.15-.7-1.66-1.85-1.74-.91-.06-1.71,.29-2.5,.61-1,.4-2.04,.86-2.86,1.54-1.58,1.33-1.72,3.31-1.95,5.21m70.79-121.27c-.34-.83-.77-1.53-1.58-1.98-1.44-.81-3.18-.57-4.06,.63-.71,.97-.61,2.24,.26,3.08,1.41,1.37,4,1.06,5.01-.61,.18-.3,.23-.68,.37-1.12"/>
</svg>