<?xml version="1.0" encoding="UTF-8"?>
<svg id="Capa_1" data-name="Capa 1" xmlns="http://www.w3.org/2000/svg" viewBox="0 0 330 328">
  <defs>
    <style>
      .cls-1 {
        fill: #fafafa;
      }

      .cls-2 {
        fill: #1c2429;
      }
    </style>
  </defs>
  <path class="cls-1" d="M264.66,229.39c-1.77,.3-3.53,.74-5.32,.91-2.18,.21-4.37,.24-6.56,.29-.8,.02-1.56,.19-2.19,.6-.62,.4-1.38,.66-1.7,1.49-.37,.95-.24,1.46,.73,1.78,.46,.16,.97,.27,1.45,.27,1,0,1.99-.07,2.98-.19,1.21-.14,2.29-.45,3.35-.97,.16-.08,.33-.16,.5-.2,2.46-.62,4.79-1.55,7.01-2.77,.53-.29,1-.68,1.49-1.02-.05-.13-.11-.26-.16-.39-.53,.06-1.06,.11-1.59,.2Z"/>
  <path class="cls-1" d="M281.79,204.28c-1.01,1.17-1.81,2.48-2.43,3.9-.35,.79-.61,1.59-.59,2.49,.02,.67-.19,1.34-.23,2.01-.06,1.09,.06,2.15,.96,3.02,.23-.25,.46-.43,.59-.66,1.05-1.89,2.19-3.75,3.1-5.71,.93-2,1.64-4.09,2.41-6.15,.13-.36,.08-.79,.13-1.41-1.75,.49-2.94,1.37-3.93,2.52Z"/>
  <path class="cls-1" d="M88.76,88.23c-.2-.29-.29-.66-.41-.99-.54-1.48-1.61-2.31-3.17-2.28-1.22,.02-2.45,.18-3.67,.26-.46,.03-.92-.02-1.38,.02-.25,.02-.56,.1-.73,.27-.55,.54-1.08,1.11-1.55,1.72-2.29,2.97-3.93,6.36-6.3,9.29-1.6,1.98-3.18,3.96-4.89,5.84-.4,.44-.82,.87-1.28,1.26-1,.85-2.06,1.64-3.03,2.52-1.63,1.48-3.21,3-4.8,4.52-.16,.15-.29,.35-.42,.53-.88,1.2-1.78,2.39-2.61,3.62-.42,.62-.98,1.24-.71,2,0,1.92,1.27,3.17,3.05,2.93,1.1-.15,2.21-.46,3.22-.92,1.27-.58,2.46-1.33,3.63-2.09,3.06-1.99,6.18-3.91,8.96-6.3,1.83-1.56,3.67-3.12,5.5-4.67,.66-.56,1.29-1.16,1.98-1.66,2.52-1.83,5.07-3.61,7.57-5.45,.94-.7,1.58-1.58,1.47-2.91-.07-.84,.14-1.71,.25-2.56,.07-.54,.33-1.09,.24-1.59-.2-1.14-.26-2.34-.94-3.36Zm-5.7,4.79c-.37,1.78-1.28,3.28-2.7,4.44-.62,.51-1.33,.68-2.15,.24-.65-.35-.99-.76-.93-1.5,.03-.32,0-.64,0-1.1-.06-.98,.14-1.98,.78-2.96,.61-.94,1.45-1.35,2.41-1.61,1.21-.33,2.83,1.24,2.57,2.49Z"/>
  <path class="cls-1" d="M309.07,133.71c-.92-.15-1.82-.61-2.81-.31-.43,.13-.89,.19-1.34,.19-1.34,.02-2.67-.02-4.01,.02-1.2,.03-2.33-.22-3.49-.5-2.16-.52-4.32-.98-6.58-.93-1.11,.03-2.23-.31-3.35-.45-1.03-.13-2.07-.32-3.11-.32-1.41,0-2.84,.05-4.22,.31-1.37,.26-2.69,.31-4.05,0-.57-.13-1.22-.15-1.78-.02-2.05,.5-4.11,1.02-6.12,1.66-1.6,.51-3.14,1.07-4.87,1.1-1.05,.02-2.21,.25-3.13,.74-2.33,1.25-4.88,1.86-7.31,2.81-1.34,.53-2.69,1.05-3.99,1.67-1.95,.92-3.86,1.92-5.79,2.89-.12,.06-.26,.08-.38,.13-.92,.37-1.83,.77-2.75,1.12-1.26,.48-2.51,1.05-3.81,1.34-2.64,.59-5.24,1.3-7.79,2.18-2.76,.96-5.48,2.03-8.2,3.11-1.3,.52-2.61,1.06-3.8,1.78-2.16,1.3-4.26,2.72-6.36,4.12-2.67,1.79-5.04,3.95-7.16,6.34-1.82,2.05-3.6,4.14-5.55,6.07-.58,.57-1.07,1.24-1.6,1.86-.09,.1-.19,.2-.29,.3-1.08,.99-2.16,1.98-3.23,2.96-.2,.19-.38,.41-.61,.55-2.66,1.67-5.51,2.93-8.64,3.33-1.77,.23-3.29,.87-4.75,1.81-1.56,.99-2.96,2.24-4.71,2.93-.12,.05-.25,.12-.34,.21-1.33,1.24-2.9,2.18-4.29,3.35-1.64,1.39-3.06,2.97-4.6,4.44-.62,.59-1.02,1.49-1.73,1.91-1.17,.69-2.03,1.68-3.05,2.52-.5,.41-1.19,.69-1.83,.8-.91,.15-1.5-.58-1.25-1.46,.12-.42,.33-.84,.58-1.2,.6-.9,1.22-1.79,1.88-2.65,1.08-1.41,2.09-2.87,3.43-4.07,1.77-1.6,3.47-3.27,5.2-4.9,1.65-1.56,3.31-3.1,5.3-4.26,.94-.54,1.82-1.18,2.7-1.82,3.37-2.43,6.72-4.89,10.1-7.31,1.1-.78,2.25-1.51,3.44-2.15,1.19-.64,1.86-.32,2.37,.91-.51,1.36-1.83,1.85-2.81,2.7-.97,.84-1.94,1.67-2.86,2.55-.3,.29-.46,.73-.71,1.14,.89,.29,1.55,.09,2.24-.21,1.74-.75,3.2-1.92,4.53-3.2,2.08-2,4.14-4.05,5.97-6.28,1.63-1.98,3.41-3.81,5.17-5.67,2.05-2.16,4.48-3.83,6.89-5.53,1.51-1.07,3.14-1.95,4.75-2.86,1.77-1.01,3.6-1.88,5.48-2.64,1.38-.55,2.85-.97,4.1-1.74,1.17-.72,2.35-1.3,3.66-1.65,.35-.09,.69-.22,1.01-.39,2.07-1.15,4.4-1.34,6.65-1.69,2.46-.38,4.73-1.05,6.83-2.38,.88-.56,1.79-1.06,2.72-1.52,3.51-1.73,6.75-3.86,9.66-6.47,1.33-1.19,2.82-2.13,4.41-2.9,.67-.33,1.46-.51,2.21-.57,1.05-.08,2.05-.3,3.07-.52,.83-.18,1.49-.6,2.22-.94,1.85-.88,3.14-2.45,4.71-3.68,1.71-1.34,3.42-2.67,5.31-3.75,1.61-.92,2.89-2.17,3.32-4.1,.09-.43,.24-.91,.52-1.22,1.16-1.29,2.36-2.54,3.58-3.77,.37-.38,.65-.72,.48-1.41-.79-.09-1.59-.23-2.39-.25-1.87-.04-3.71,.21-5.55,.52-.8,.14-1.63,.33-2.43,.27-1.76-.13-3.44,.38-5.12,.68-2.02,.36-4.02,1.01-5.96,1.71-2.67,.96-5.28,2.08-7.91,3.13-2.38,.95-4.81,1.79-7.04,3.08-.55,.32-1.06,.72-1.64,.94-2.05,.78-3.84,1.99-5.66,3.15-1.27,.8-2.61,1.41-4.04,1.87-1.56,.5-3.16,.46-4.75,.35-1.26-.09-2.5-.34-3.76-.5-.22-.03-.46,0-.69,.03-.49,.07-.98,.23-1.47,.22-.93-.02-1.8,.18-2.66,.48-3.56,1.24-6.84,3.05-10.01,5.06-.77,.49-1.49,1.02-1.93,1.88-.21,.41-.6,.69-1.14,.62-.54-.08-1.08-.16-1.62-.19-.49-.03-1.01-.09-1.48,.03-1.2,.32-2.32,.16-3.46-.29-.65-.26-.96-.75-1.01-1.33-.12-1.42-.06-2.81,.9-4.02,.68-.84,1.26-1.76,1.85-2.67,.25-.39,.41-.84,.73-1.52-.72,.16-1.07,.23-1.42,.32-1.04,.27-2.1,.48-3.12,.82-1.45,.48-2.88,1.04-4.3,1.58-3.59,1.36-7.04,3.02-10.3,5.07-1.57,.98-3.19,1.87-4.75,2.86-1.52,.97-3.08,1.92-4.45,3.08-1.92,1.63-3.7,3.42-5.5,5.19-.91,.89-1.72,1.89-2.58,2.84-.86,.95-1.74,1.88-2.56,2.85-1.32,1.56-2.56,3.19-3.92,4.71-1.68,1.88-3.47,3.66-5.19,5.5-1.21,1.28-2.43,2.54-3.58,3.87-1.37,1.58-2.76,3.15-3.97,4.85-1.48,2.08-3.23,3.92-4.85,5.88-.76,.91-1.61,1.74-2.35,2.67-1.48,1.88-2.92,3.8-4.37,5.71-.96,1.27-2.05,2.44-3.05,3.67-1.57,1.93-3.04,3.95-4.73,5.8-.65,.71-1.02,1.69-1.5,2.55-.22,.39-.38,.82-.63,1.19-.48,.71-1.1,1.35-1.48,2.1-1.01,1.96-2.63,3.24-4.53,4.17-1.24,.61-2.6,1.02-3.93,1.44-2.01,.62-3.64-.1-4.58-1.94-.37-.73-.72-1.46-1.09-2.19-.86-1.7-.86-3.38,.01-5.08,.87-1.69,1.75-3.36,3.07-4.78,1.83-1.96,3.53-4.02,5.52-5.85,2.87-2.64,5.6-5.45,8.13-8.42,1.51-1.77,3.13-3.5,4.33-5.57,1.47-2.53,3.22-4.9,4.48-7.57,1.17-2.45,2.51-4.82,3.61-7.31,1.24-2.8,2.28-5.68,3.42-8.52,.72-1.8,1.54-3.56,2.17-5.38,1.1-3.2,2.42-6.31,3.87-9.36,.67-1.42,1.44-2.8,2.09-4.24,.64-1.44,1.21-2.91,1.76-4.39,.36-.97,.64-1.96,.94-2.96,.51-1.72,1.47-3.29,1.64-5.14,.1-1.11,.49-2.2,.66-3.31,.26-1.74,.47-3.5,.66-5.25,.11-1.04-.16-2.11,.27-3.12,.07-.16,.06-.38,0-.55-.52-1.43-.14-2.91-.27-4.37-.06-.63-.13-1.26-.26-1.87-.25-1.19-.61-2.34-1.05-3.48-.42-1.08-.75-2.24-.62-3.45,.11-1.13,.18-2.27,.28-3.4,.22-2.32-.33-4.5-1.06-6.67-.97-2.85-1.85-5.74-2.83-8.59-.31-.89-.7-1.79-1.25-2.55-1.27-1.76-2.66-3.44-4-5.15-.58-.75-1.14-1.52-1.74-2.25-.88-1.1-1.73-2.23-2.7-3.25-.77-.82-1.83-1.35-2.38-2.4-.06-.12-.18-.21-.29-.29-1.87-1.51-3.71-3.05-5.62-4.51-2.02-1.53-4.12-3.01-6.48-3.9-3.32-1.25-6.74-2.26-10.14-3.28-.98-.29-2.09-.5-3.08-.34-1.05,.17-2.09,.14-3.13,.21-1.13,.08-2.3,.05-3.39,.32-3.15,.78-6.24,1.75-9.17,3.17-1.55,.75-3.09,1.52-4.62,2.31-1.62,.84-3.09,1.88-4.41,3.13-1.62,1.55-3.14,3.18-4.46,5-1.43,1.98-2.88,3.96-3.84,6.21-.75,1.78-1.36,3.62-1.93,5.47-.31,1.03-.48,2.12-.58,3.19-.13,1.27,.14,2.56-.28,3.81-.08,.25-.06,.56,0,.82,.24,1.24,.63,2.29,2.13,2.6,1.55,.32,3.02,.09,4.37-.5,2.48-1.1,4.89-2.37,7.29-3.64,.79-.42,1.54-.98,2.16-1.62,.75-.78,1.31-1.73,2-2.57,.42-.52,.87-1.04,1.4-1.45,1.92-1.49,4.2-2.25,6.48-2.96,.72-.23,1.51-.34,2.27-.34,1.13,0,1.68,.68,1.76,1.8,.07,.94-.32,1.68-.8,2.41-.55,.83-1.09,1.67-1.72,2.43-1.05,1.26-2.15,2.48-3.29,3.67-.63,.66-1.35,1.22-2.05,1.8-1.26,1.04-2.47,2.16-3.81,3.06-1.77,1.19-2.82,2.9-3.78,4.68-.53,.98-.89,2.06-1.3,3.11-.18,.46-.27,.95-.4,1.42-.25,.89,.06,1.77,.03,2.66-.02,.85,.13,1.72,.29,2.56,.15,.78,.8,1.08,1.64,.91,.4-.08,.81-.12,1.22-.12,1.7-.01,3.41-.03,5.11,0,1.02,.02,1.96-.21,2.93-.5,2.92-.88,5.57-2.36,8.26-3.74,.97-.5,1.88-1.05,2.95-1.31,1.13-.28,2.28-.54,3.4-.87,1.67-.49,3.25-.26,4.72,.58,1.86,1.05,3.59,2.28,5.12,3.78,.58,.57,1.03,1.28,1.61,1.85,1.24,1.21,2.03,2.7,2.49,4.31,.46,1.61,.96,3.22,.66,5.01-.28,1.69-.04,3.46-.31,5.19-.3,1.93-.24,3.91-.63,5.82-.62,3.03-1.11,6.13-2.47,8.95-1.16,2.4-2.28,4.85-3.73,7.08-1.47,2.27-3.31,4.3-4.98,6.45-1.19,1.54-2.34,3.11-3.55,4.63-.71,.89-1.47,1.75-2.27,2.55-.77,.77-1.63,1.46-2.44,2.19-.27,.25-.52,.52-.8,.76-.97,.82-2,1.57-2.92,2.44-.82,.78-1.52,1.7-2.29,2.54-1.5,1.61-3.04,3.18-4.51,4.81-1.09,1.22-2.12,2.49-3.13,3.77-1.27,1.61-2.15,3.44-3.05,5.27-.55,1.13-.96,2.36-1.64,3.41-1.04,1.59-2.18,3.12-3.43,4.55-2.66,3.03-5.79,5.52-9.28,7.55-1.39,.81-2.74,1.71-3.67,3.01-.77,1.07-1.88,1.68-2.78,2.54-1.43,1.37-2.97,2.65-4.2,4.19-1.09,1.36-1.81,3.01-2.71,4.51-.25,.42-.56,.82-.88,1.2-.77,.9-1.64,1.73-2.32,2.69-.98,1.4-1.92,2.85-2.72,4.36-.71,1.35-1.43,2.69-1.8,4.22-.66,2.67-1.78,5.21-3.07,7.63-.39,.73-.73,1.44-.92,2.22-.12,.48,0,1.02-.14,1.49-.58,2-.18,3.99,.09,5.96,.24,1.74,.75,3.44,.79,5.22,.02,.95,.2,1.89,.32,2.83,.15,1.12,.42,2.23,.47,3.35,.1,2.14,.17,4.29-.79,6.31-.31,.65-.1,1.26,.38,1.82,.56,.65,.99,1.41,1.58,2.03,1.14,1.2,2.34,2.33,3.52,3.49,.92,.89,1.85,1.78,2.77,2.66,.35,.33,.67,.7,1.04,1.01,1.04,.87,2.1,1.74,3.17,2.58,.35,.27,.77,.6,1.17,.63,.9,.05,1.84,.05,2.72-.15,1.9-.43,3.84-.58,5.72-.28,1.84,.29,3.62,1.03,5.41,1.64,.63,.21,1.21,.58,1.8,.9,2.25,1.25,4.5,2.49,6.94,3.34,3.41,1.18,6.9,1.89,10.52,1.78,2.1-.06,4.2-.17,6.3-.27,1.69-.08,3.39-.06,5.05-.33,1-.16,2-.13,2.99-.25,1.93-.24,3.84-.57,5.77-.78,.67-.07,1.21-.28,1.71-.72,.37-.33,.76-.75,1.21-.85,1.23-.29,2.48-.51,3.73-.63,1.05-.1,2.12-.04,3.18-.02,1.03,.02,1.92-.33,2.81-.84,1.09-.63,2.22-1.27,3.42-1.59,1.57-.42,3.2-.67,4.85-.62,1.01,.03,2.04,.12,3.04-.03,1.98-.29,3.96-.54,5.97-.52,.23,0,.46,.01,.69-.01,1.48-.17,2.97-.54,4.45-.49,1.95,.07,3.88-.51,5.83-.06,.79,.18,1.62,.2,2.43,.29,.95,.1,1.89,.25,2.84,.27,1.11,.03,1.37-.42,.94-1.45-.45-1.06-1.02-1.98-1.99-2.7-1.36-1.02-1.36-2.47-.08-3.33,.43-.29,1.01-.5,1.52-.49,1.92,.03,3.84,.13,5.75,.28,1.17,.09,2.32,.44,3.48,.49,1.46,.07,2.85,.46,4.27,.74,1.41,.28,2.82,.6,4.2,.99,1.1,.32,2.21,.46,3.34,.56,1.3,.12,2.6,.47,3.9,.46,2.7-.02,5.39,.13,8.1-.19,2.16-.25,4.33-.44,6.45-.9,2.6-.57,5.14-1.33,7.56-2.49,.76-.36,1.61-.76,2.42-.77,1.88-.03,3.59-.63,5.17-1.46,2.33-1.24,4.89-1.53,7.36-2.17,1.79-.46,3.59-.85,5.39-1.26,1.6-.36,2.29-1.59,2.93-2.94,.56-1.19,.13-2.16-.43-3.17-.3-.55-.53-1.15-.71-1.75-.12-.43-.15-.9-.13-1.35,.04-.63,.23-1.25,.23-1.88,0-.74,.29-1.3,.77-1.83,.8-.9,1.79-1.55,2.77-2.19,2.17-1.42,4.49-2.27,7.14-2.17,2.25,.08,4.51,.02,6.77,.02,.32,0,.65,.03,.97-.01,2.02-.26,4.03-.54,6.05-.81,2.16-.29,4.26-.78,6.15-1.92,.92-.55,1.77-1.24,1.97-2.33,.16-.85,.21-1.79-.01-2.61-.58-2.11-.49-4.25-.5-6.39,0-.27,.03-.55,.11-.81,.86-2.61,2.1-5,4.14-6.91,.43-.4,.91-.74,1.38-1.11,1.67-1.32,3.32-2.67,5.02-3.94,2.79-2.1,5.96-3.57,8.95-5.34,1.75-1.03,3.21-2.42,4.43-4.02,1.85-2.44,3.79-4.78,6.24-6.66,.83-.64,1.6-1.35,2.35-2.08,.32-.31,.6-.7,.76-1.11,.27-.7-.07-1.18-.82-1.19-.49,0-.99,.08-1.46,.22-1.3,.37-2.58,.79-3.87,1.2-1.18,.37-2.39,.65-3.62,.47-.73-.11-1.7-.3-2.08-.81-.71-.97-1.38-.71-2.19-.4-.29,.11-.61,.18-.89,.32-3.35,1.69-6.8,3.12-10.27,4.53-1.58,.64-3.12,1.45-4.75,1.94-2.25,.67-4.22,1.75-6.14,3.06-1.45,.99-2.77,2.19-4.45,2.84-1.34,.51-2.68,1.03-4.03,1.54-2,.75-3.86,1.72-5.55,3.04-.32,.25-.7,.4-1.07,.58-1.83,.89-3.62,1.88-5.5,2.63-2.57,1.02-4.55,2.82-6.48,4.66-1.37,1.31-2.9,2.31-4.53,3.21-1.78,.98-3.57,1.95-5.3,3.02-.5,.31-.92,.29-1.4,.24-.63-.76-.41-1.51,.17-2.05,.72-.67,1.55-1.25,2.4-1.75,1.24-.73,2.58-1.31,3.83-2.04,2.41-1.42,4.27-3.52,6.4-5.29,1.43-1.19,2.79-2.48,4.25-3.64,1.77-1.41,3.59-2.75,5.42-4.07,2.27-1.64,4.58-3.21,7.38-3.86,.87-.2,1.72-.53,2.55-.86,1.26-.49,2.48-1.07,3.75-1.53,2.02-.72,3.67-2,5.11-3.51,.68-.72,1.29-1.49,2.12-2.08,.44-.31,.93-.71,1.13-1.19,1.01-2.35,1.66-4.79,1.44-7.39-.05-.58-.21-1.16-.24-1.74-.04-1.06-.04-2.12,0-3.18,.02-.44,.13-.89,.25-1.32,.43-1.51,1.19-2.85,2.36-3.91,1.57-1.42,2.87-3.07,3.8-4.95,.75-1.51,1.93-2.53,3.29-3.35,2.55-1.54,5.15-2.99,7.75-4.44,3.23-1.81,6.38-3.73,9.45-5.81,2.35-1.59,3.83-3.82,4.99-6.32,.39-.84,.18-1.75-.51-1.86Zm-83.32,80.96c-1.14,1.18-2.45,2.16-3.95,2.83-1.01,.46-2.15-.4-2.16-1.84,.08-.14,.22-.58,.52-.87,1.13-1.13,2.53-1.89,3.96-2.57,.48-.23,1.19,.07,1.54,.56,.42,.6,.51,1.47,.09,1.9Z"/>
  <path class="cls-1" d="M293.87,156.15c-1.14,.45-2.08,1.07-2.92,1.91-.59,.59-1.09,1.35-1.8,1.69-1.48,.71-2.23,1.93-2.87,3.3-.25,.53-.54,1.05-.77,1.59-.69,1.57-1.17,3.21-1.46,4.91-.33,1.91-.61,3.83-.96,5.74-.16,.9,.14,1.31,1.06,1.43,1.26,.16,2.29-.46,3.36-.92,1.74-.74,3.48-1.46,5.34-1.88,1.18-.27,2.15-.78,2.62-2.08,.71-1.94,1.58-3.83,2.38-5.74,.54-1.28,1-2.61,1.64-3.84,.74-1.44,1.67-2.79,2.46-4.21,.91-1.64,1.92-3.19,3.37-4.42,.65-.56,1.32-1.09,1.98-1.64l-.03-.39c-.31-.11-.62-.26-.94-.32-1.03-.19-1.95,.31-2.91,.54-1.94,.46-3.81,1.03-5.5,2.17-1.26,.86-2.65,1.59-4.07,2.15Z"/>
  <path class="cls-2" d="M312.67,130.78c-1.21-.13-2.41-.48-3.62-.47-2.84,0-5.68,.14-8.51,.26-1.16,.05-2.25-.11-3.33-.54-.91-.37-1.94-.49-2.8-.95-1.7-.9-3.57-1.06-5.38-1.21-1.94-.16-3.93-.35-5.88,.18-.37,.1-.83,.03-1.22-.08-.91-.24-1.78-.26-2.69,.02-.6,.18-1.24,.36-1.86,.34-1.69-.03-3.37-.13-5.05-.28-.5-.05-1.08-.22-1.31-.96,.42-.33,.82-.69,1.27-.97,2.95-1.83,5.92-3.64,8.87-5.48,.61-.38,1.29-.75,1.71-1.29,.76-1,1.39-2.1,2-3.2,.28-.5,.43-1.08,.55-1.65,.18-.82,.38-1.53,1.3-1.9,1.22-.48,2.07-1.44,2.75-2.54,.74-1.2,.52-2.63-.6-3.53-.63-.51-1.29-1.02-2.02-1.36-1.02-.47-2.09-1.02-3.17-1.08-1.81-.11-3.67,0-5.46,.27-2.62,.41-5.19,1.2-7.81,1.56-3.47,.48-6.75,1.59-10.04,2.66-4.28,1.4-8.38,3.3-12.49,5.13-3.51,1.56-6.93,3.31-10.42,4.91-1.98,.91-4.02,1.63-6.29,1.46-1.42-.11-2.86,.02-4.28-.03-1.57-.06-3.08,.26-4.54,.75-3.45,1.15-6.57,2.98-9.72,4.75-1.54,.86-3.16,1.53-5.06,1.4-.31-1.21,.59-1.6,1.16-2.12,.97-.88,2.05-1.65,3.01-2.55,.58-.54,.82-1.33,.69-2.12-.26-1.69-1.2-2.81-2.84-3.43-.9-.34-1.69-.24-2.5,.08-1.3,.52-2.58,1.08-3.86,1.63-1.7,.72-3.35,1.62-5.11,2.13-2.7,.78-5.27,1.83-7.77,3.1-.2,.1-.42,.18-.62,.27-1.43,.68-2.93,1.24-4.27,2.06-2.5,1.53-4.94,3.16-7.35,4.83-1.19,.82-2.21,1.89-3.39,2.74-2.08,1.5-3.86,3.32-5.76,5.03-.84,.76-1.5,1.72-2.3,2.53-.7,.71-1.52,1.31-2.24,2-1.03,.99-2,2.05-3.05,3.01-1.51,1.39-3.1,2.69-4.59,4.09-.8,.74-1.45,1.64-2.19,2.44-1.46,1.58-3.02,3.08-4.4,4.73-1.51,1.8-2.81,3.77-4.29,5.6-2.3,2.85-4.5,5.77-6.44,8.89-.81,1.3-1.6,2.62-2.46,3.89-.89,1.31-1.85,2.56-2.78,3.84-.86,1.17-1.72,2.33-2.59,3.49-.93,1.23-1.88,2.43-2.82,3.65-.61,.79-1.21,1.58-1.81,2.38-.51,.69-1.09,1.35-1.49,2.09-.37,.7-.79,1.32-1.36,1.86-.64,.6-1.27,1.21-1.85,1.86-.91,1-1.9,1.56-3.26,.92-.15-.07-.36-.01-.55-.03-.93-.08-1.54-.58-1.63-1.5-.05-.53,0-1.11,.17-1.61,.75-2.31,1.97-4.37,3.66-6.12,1.95-2.02,3.95-3.99,5.96-5.96,.71-.7,1.54-1.29,2.24-2,1.3-1.32,2.57-2.67,3.78-4.06,1.04-1.19,2.03-2.44,2.96-3.72,.98-1.35,1.82-2.8,2.79-4.15,1.59-2.21,2.8-4.64,4.09-7.02,.75-1.39,1.4-2.82,2.11-4.23,1.05-2.1,2.25-4.14,3.11-6.31,1.13-2.85,2.2-5.72,3.6-8.45,.14-.28,.22-.59,.34-.88,1.29-3.27,2.58-6.53,3.87-9.8,1.17-2.97,2.38-5.93,3.5-8.93,.63-1.68,.98-3.47,1.64-5.14,.94-2.37,1.46-4.82,1.77-7.34,.09-.76,.26-1.51,.37-2.27,.29-1.83,.78-3.63,.73-5.51-.11-4.63-.22-9.27-.26-13.9-.01-1.13-.2-2.17-.77-3.13-.68-1.13-.72-2.4-.9-3.65-.14-.98-.29-1.96-.44-2.95-.31-2.03-1.24-3.85-1.91-5.76-1.01-2.89-1.76-5.88-3.32-8.56-.05-.08-.1-.16-.12-.24-.46-1.71-1.56-3.07-2.63-4.38-1.47-1.81-3.14-3.46-4.79-5.11-1.98-1.97-3.95-3.97-6.09-5.77-2.28-1.92-4.7-3.65-7.22-5.26-2.69-1.72-5.58-2.92-8.57-3.96-.72-.25-1.51-.36-2.17-.71-2.35-1.26-4.94-1.36-7.5-1.65-.23-.03-.49-.07-.69,.01-.93,.38-1.9,.19-2.85,.27-.9,.07-1.81,.16-2.69,.34-1.45,.3-2.91,.61-4.33,1.05-2.01,.63-4.12,1-6.01,2.02-1.27,.69-2.54,1.39-3.81,2.08-1.19,.65-2.4,1.25-3.55,1.96-2.17,1.34-3.99,3.1-5.76,4.92-1.47,1.51-2.89,3.06-4.33,4.6-.21,.23-.4,.49-.58,.75-.83,1.24-1.75,2.43-2.43,3.75-.65,1.27-1.25,2.58-1.47,4.05-.22,1.46-.51,2.92-.92,4.35-.28,.99-.34,2.05-.41,3.09-.13,1.82-.2,3.65-.29,5.47,0,.13-.03,.27-.07,.4-.31,.98-.26,1.96-.04,2.96,.08,.33,.03,.71-.04,1.05-.31,1.31-.64,2.62-.98,3.93-.34,1.31-.75,2.61-1.48,3.76-1.53,2.4-3.03,4.81-4.68,7.12-1.24,1.73-2.64,3.36-4.07,4.94-.98,1.08-2.14,1.99-3.22,2.98-2.39,2.2-4.78,4.39-7.15,6.61-1.51,1.41-2.69,3.05-3.58,4.93-.62,1.3-1.01,2.59-.95,4.05,.07,1.76,.74,3.17,2.24,4.08,2.72,1.65,5.52,1.99,8.47,.47,1.89-.97,3.77-1.93,5.52-3.15,1.48-1.04,3.01-2,4.46-3.07,1.53-1.12,3-2.33,4.51-3.5,.89-.69,1.83-1.33,2.7-2.05,1.69-1.38,3.35-2.79,5.03-4.17,.45-.37,.98-.64,1.45-.98,1.56-1.16,3.11-2.33,4.67-3.5,1.27-.95,2.34-2.14,3.79-2.85,.89-.44,1.73-.99,2.53-1.56,.89-.63,1.84-.93,2.92-.91,1.66,.02,3.32,0,4.97,0,.32,0,.67,.06,.96-.04,1.7-.6,3.46-.99,5.07-1.84,1.8-.95,3.62-1.86,5.47-2.72,2.4-1.12,4.9-1.53,7.53-.86,2.1,.53,3.5,2.05,4.68,3.62,2.17,2.89,3.05,6.32,3.16,9.92,.03,1.08-.23,2.17-.24,3.26-.02,2.43-.73,4.72-1.32,7.04-.62,2.42-1.79,4.62-2.78,6.89-1.5,3.45-3.49,6.63-5.43,9.84-.8,1.33-1.81,2.49-2.78,3.69-1.46,1.8-2.93,3.59-4.55,5.26-1.24,1.28-2.65,2.4-3.9,3.67-3.58,3.63-7.13,7.3-10.68,10.95-.15,.16-.26,.37-.37,.56-.64,1.09-1.26,2.19-1.93,3.26-1.15,1.85-1.83,3.91-2.74,5.87-.75,1.6-1.53,3.19-2.78,4.45-1.77,1.79-3.61,3.52-5.48,5.21-1.95,1.76-4.21,3.1-6.5,4.38-2.56,1.43-4.82,3.26-6.82,5.39-1.69,1.79-3.26,3.7-4.97,5.47-.85,.88-1.52,1.81-1.81,2.98-.5,2.03-1.78,3.62-2.87,5.32-1.54,2.39-3.27,4.68-4.59,7.18-1.59,3.03-2.77,6.24-3.49,9.62-.45,2.1-.87,4.17-.78,6.33,.01,.32-.01,.64-.08,.95-.32,1.45-.28,2.89-.02,4.34,.25,1.38,.45,2.76,.65,4.15,.13,.85,.19,1.71,.36,2.55,.31,1.5,.59,3.02,1.07,4.46,.27,.8,.03,1.4-.22,2.06-.11,.29-.38,.51-.5,.8-.26,.67-.79,1.43-.65,2.01,.33,1.33,.44,2.79,1.33,3.93,.86,1.11,1.77,2.18,2.69,3.25,.91,1.06,2.02,1.92,3.07,2.84,1.96,1.73,3.82,3.56,5.69,5.39,.67,.66,1.4,1.15,2.31,1.38,1.14,.28,2.27,.71,3.41,.77,1.59,.08,3.2,.28,4.79-.15,.61-.16,1.28-.42,1.85-.29,1.44,.33,2.91,.69,4.23,1.33,3.18,1.51,6.38,2.97,9.68,4.21,2.08,.78,4.23,1.23,6.41,1.59,1.2,.19,2.41,.37,3.62,.53,.32,.04,.64,.03,.96,0,.58-.06,1.16-.21,1.74-.23,1.69-.07,3.38,.09,5.06-.27,.92-.2,1.89-.22,2.84-.29,1.59-.11,3.21-.05,4.77-.32,2.01-.35,3.98-.94,6.05-.79,.05,0,.09,0,.14-.01,1.89-.42,3.77-.88,5.66-1.26,1.72-.35,3.45-.79,5.2-.88,1.47-.07,2.87-.45,4.3-.65,1.02-.14,2.04-.55,2.57-1.59,.34-.66,.91-.85,1.58-.85,3.25-.02,6.5-.08,9.76-.23,2.92-.13,5.85-.14,8.79,.16,2.25,.23,4.56-.21,6.85-.18,1.59,.02,3.06-.34,4.5-.88,1.85-.7,2.56-2.31,1.85-4.09-.18-.46-.49-.86-.72-1.3-.22-.42-.41-.85-.58-1.19,.68-.7,1.39-.62,2.06-.56,.62,.06,1.23,.27,1.85,.39,2.38,.48,4.66,1.43,7.13,1.55,.67,.03,1.36,.11,2.01,.29,1.49,.42,2.99,.63,4.52,.85,2.95,.41,5.91,.54,8.88,.5,.23,0,.46,0,.69-.02,1.58-.17,3.15-.35,4.72-.53,.99-.12,1.99-.19,2.96-.4,1.71-.37,3.39-.91,5.11-1.23,2.36-.44,4.65-1.06,6.83-2.08,.76-.36,1.63-.6,2.46-.68,1.47-.14,2.82-.59,4.12-1.24,.48-.24,.98-.48,1.5-.62,2.92-.79,5.86-1.45,8.87-1.77,.9-.1,1.8-.2,2.67-.43,1.84-.48,3.26-1.55,3.94-3.37,.71-1.92,2.09-3.01,4.02-3.48,1.31-.32,2.62-.63,3.95-.87,2.18-.4,4.26-1.12,6.37-1.75,2.29-.69,4.59-1.34,6.7-2.48,1.9-1.03,3.77-2.13,5.65-3.21,.15-.09,.27-.25,.4-.38,1.93-1.83,3.85-3.67,5.78-5.5,.23-.22,.49-.44,.67-.7,1.24-1.77,2.45-3.57,3.71-5.33,1.33-1.85,2.23-3.91,3.01-6.02,.87-2.36,1.58-4.79,2.55-7.11,.62-1.49,1.53-2.86,2.41-4.23,.58-.91,1.33-1.72,2.02-2.55,1.11-1.33,2.14-2.74,3.38-3.93,1.98-1.91,3.66-4.04,5.21-6.3,.41-.6,.86-1.19,1.39-1.67,1.11-1.01,2.27-1.95,3.42-2.92,.35-.29,.73-.53,1.06-.84,1.56-1.46,3.3-2.81,3.47-5.2,.6-.94,.05-1.79-.35-2.55-.4-.76-1.07-1.47-1.98-1.55-.99-.09-2.03-.06-2.99,.16-1.49,.34-2.93,.86-4.39,1.34-.53,.17-.99,.23-1.34-.33,.53-1.65,1.09-3.31,1.59-4.98,.52-1.73,1.05-3.44,2.04-4.98,.22-.34,.33-.74,.49-1.11,.78-1.73,1.56-3.47,2.79-4.94,.91-1.08,1.82-2.2,2.88-3.12,1.64-1.43,2.32-3.34,2.83-5.3,.23-.88,.21-1.9-.2-2.83-.36-.83-.52-1.06-1.38-1.01-.94,.07-1.9,.19-2.81,.43-1.68,.45-3.34,.9-5.24,.55,.27-.3,.46-.59,.73-.77,2.02-1.36,4.03-2.74,6.21-3.85,.96-.48,1.95-1.04,2.7-1.78,1.32-1.3,2.49-2.75,2.86-4.67,.14-.71,.4-1.39,.49-2.1,.18-1.47-.69-3.72-2.6-3.91ZM89.46,93.18c-.11,.85-.32,1.72-.25,2.56,.11,1.33-.53,2.21-1.47,2.91-2.5,1.84-5.06,3.62-7.57,5.45-.7,.51-1.33,1.1-1.98,1.66-1.84,1.56-3.68,3.11-5.5,4.67-2.79,2.38-5.9,4.3-8.96,6.3-1.17,.76-2.37,1.51-3.63,2.09-1.01,.46-2.12,.77-3.22,.92-1.78,.24-3.05-1.01-3.05-2.93-.27-.76,.29-1.38,.71-2,.84-1.23,1.74-2.42,2.61-3.62,.13-.18,.26-.38,.42-.53,1.59-1.51,3.17-3.04,4.8-4.52,.97-.88,2.03-1.67,3.03-2.52,.45-.39,.87-.82,1.28-1.26,1.71-1.87,3.29-3.86,4.89-5.84,2.37-2.93,4.01-6.33,6.3-9.29,.47-.61,1-1.18,1.55-1.72,.17-.17,.48-.25,.73-.27,.46-.04,.92,.01,1.38-.02,1.22-.08,2.45-.24,3.67-.26,1.56-.03,2.64,.8,3.17,2.28,.12,.34,.22,.7,.41,.99,.68,1.02,.74,2.22,.94,3.36,.09,.5-.17,1.06-.24,1.59Zm175.46,137.43c-2.22,1.22-4.55,2.15-7.01,2.77-.17,.04-.34,.12-.5,.2-1.06,.51-2.15,.83-3.35,.97-1,.12-1.99,.19-2.98,.19-.48,0-.99-.12-1.45-.27-.97-.33-1.1-.83-.73-1.78,.32-.83,1.08-1.09,1.7-1.49,.64-.41,1.39-.58,2.19-.6,2.19-.05,4.39-.08,6.56-.29,1.79-.17,3.55-.61,5.32-.91,.53-.09,1.06-.13,1.59-.2,.05,.13,.11,.26,.16,.39-.5,.34-.97,.73-1.49,1.02Zm20.68-27.44c-.77,2.07-1.48,4.16-2.41,6.15-.91,1.96-2.04,3.82-3.1,5.71-.13,.23-.36,.41-.59,.66-.9-.87-1.02-1.92-.96-3.02,.04-.67,.25-1.35,.23-2.01-.02-.9,.24-1.7,.59-2.49,.62-1.41,1.42-2.73,2.43-3.9,.99-1.14,2.18-2.03,3.93-2.52-.05,.62,0,1.05-.13,1.41Zm17.84-51.34c.96-.23,1.88-.73,2.91-.54,.32,.06,.63,.21,.94,.32l.03,.39c-.66,.55-1.33,1.08-1.98,1.64-1.44,1.23-2.46,2.78-3.37,4.42-.79,1.42-1.72,2.76-2.46,4.21-.64,1.23-1.1,2.56-1.64,3.84-.8,1.91-1.68,3.79-2.38,5.74-.47,1.3-1.44,1.82-2.62,2.08-1.86,.42-3.59,1.14-5.34,1.88-1.07,.45-2.1,1.08-3.36,.92-.92-.12-1.22-.53-1.06-1.43,.34-1.91,.63-3.83,.96-5.74,.29-1.69,.77-3.33,1.46-4.91,.23-.54,.52-1.05,.77-1.59,.64-1.38,1.39-2.59,2.87-3.3,.71-.34,1.21-1.11,1.8-1.69,.84-.84,1.78-1.46,2.92-1.91,1.42-.56,2.8-1.29,4.07-2.15,1.69-1.14,3.56-1.71,5.5-2.17Zm6.15-16.27c-1.16,2.5-2.64,4.73-4.99,6.32-3.07,2.08-6.22,4-9.45,5.81-2.6,1.45-5.2,2.9-7.75,4.44-1.36,.82-2.53,1.84-3.29,3.35-.93,1.88-2.23,3.53-3.8,4.95-1.17,1.06-1.93,2.39-2.36,3.91-.12,.43-.23,.88-.25,1.32-.04,1.06-.04,2.12,0,3.18,.02,.58,.19,1.16,.24,1.74,.22,2.6-.44,5.04-1.44,7.39-.2,.47-.69,.88-1.13,1.19-.83,.58-1.43,1.36-2.12,2.08-1.44,1.51-3.09,2.79-5.11,3.51-1.27,.46-2.49,1.04-3.75,1.53-.84,.32-1.68,.65-2.55,.86-2.8,.65-5.11,2.22-7.38,3.86-1.83,1.32-3.65,2.67-5.42,4.07-1.46,1.16-2.82,2.45-4.25,3.64-2.13,1.77-3.99,3.87-6.4,5.29-1.25,.73-2.58,1.31-3.83,2.04-.85,.5-1.68,1.08-2.4,1.75-.58,.54-.8,1.28-.17,2.05,.47,.05,.9,.07,1.4-.24,1.73-1.06,3.52-2.04,5.3-3.02,1.64-.9,3.16-1.9,4.53-3.21,1.93-1.84,3.91-3.64,6.48-4.66,1.89-.75,3.67-1.74,5.5-2.63,.36-.18,.75-.33,1.07-.58,1.69-1.31,3.56-2.29,5.55-3.04,1.35-.5,2.69-1.02,4.03-1.54,1.67-.64,2.99-1.85,4.45-2.84,1.92-1.3,3.9-2.39,6.14-3.06,1.63-.48,3.16-1.29,4.75-1.94,3.47-1.41,6.93-2.84,10.27-4.53,.28-.14,.59-.21,.89-.32,.81-.31,1.48-.57,2.19,.4,.38,.51,1.35,.7,2.08,.81,1.22,.18,2.44-.09,3.62-.47,1.29-.41,2.57-.83,3.87-1.2,.47-.14,.98-.22,1.46-.22,.76,0,1.1,.49,.82,1.19-.16,.41-.44,.81-.76,1.11-.75,.73-1.52,1.45-2.35,2.08-2.45,1.88-4.39,4.22-6.24,6.66-1.22,1.6-2.68,2.99-4.43,4.02-2.99,1.76-6.16,3.24-8.95,5.34-1.7,1.28-3.35,2.63-5.02,3.94-.46,.37-.95,.71-1.38,1.11-2.03,1.91-3.28,4.3-4.14,6.91-.08,.25-.11,.54-.11,.81,0,2.14-.08,4.28,.5,6.39,.22,.81,.17,1.76,.01,2.61-.2,1.09-1.05,1.77-1.97,2.33-1.89,1.14-3.99,1.63-6.15,1.92-2.02,.27-4.03,.55-6.05,.81-.32,.04-.64,.01-.97,.01-2.26,0-4.52,.07-6.77-.02-2.65-.1-4.98,.75-7.14,2.17-.99,.65-1.97,1.3-2.77,2.19-.48,.53-.76,1.09-.77,1.83,0,.63-.2,1.25-.23,1.88-.03,.45,0,.92,.13,1.35,.17,.6,.4,1.2,.71,1.75,.56,1.01,.99,1.99,.43,3.17-.63,1.35-1.33,2.58-2.93,2.94-1.8,.41-3.6,.8-5.39,1.26-2.47,.64-5.03,.93-7.36,2.17-1.58,.84-3.29,1.44-5.17,1.46-.81,.01-1.66,.41-2.42,.77-2.42,1.15-4.96,1.91-7.56,2.49-2.12,.47-4.29,.65-6.45,.9-2.71,.31-5.41,.17-8.1,.19-1.3,0-2.6-.35-3.9-.46-1.13-.1-2.24-.25-3.34-.56-1.38-.4-2.79-.71-4.2-.99-1.41-.28-2.8-.67-4.27-.74-1.17-.05-2.32-.4-3.48-.49-1.91-.15-3.83-.25-5.75-.28-.51,0-1.09,.2-1.52,.49-1.28,.86-1.27,2.32,.08,3.33,.96,.72,1.54,1.65,1.99,2.7,.44,1.03,.18,1.48-.94,1.45-.95-.02-1.9-.17-2.84-.27-.81-.08-1.64-.1-2.43-.29-1.95-.45-3.88,.13-5.83,.06-1.47-.05-2.96,.32-4.45,.49-.23,.03-.46,.02-.69,.01-2.01-.02-3.99,.23-5.97,.52-.99,.14-2.02,.06-3.04,.03-1.65-.05-3.28,.2-4.85,.62-1.2,.32-2.33,.97-3.42,1.59-.89,.51-1.78,.86-2.81,.84-1.06-.02-2.13-.08-3.18,.02-1.25,.12-2.51,.34-3.73,.63-.45,.11-.84,.53-1.21,.85-.5,.44-1.04,.65-1.71,.72-1.93,.21-3.85,.54-5.77,.78-.99,.13-1.98,.09-2.99,.25-1.66,.27-3.36,.24-5.05,.33-2.1,.1-4.2,.21-6.3,.27-3.62,.11-7.11-.59-10.52-1.78-2.44-.85-4.69-2.09-6.94-3.34-.59-.33-1.17-.69-1.8-.9-1.79-.6-3.56-1.35-5.41-1.64-1.88-.3-3.82-.15-5.72,.28-.88,.2-1.82,.2-2.72,.15-.4-.02-.82-.36-1.17-.63-1.07-.84-2.13-1.7-3.17-2.58-.37-.31-.69-.67-1.04-1.01-.92-.89-1.85-1.77-2.77-2.66-1.18-1.15-2.39-2.29-3.52-3.49-.59-.62-1.02-1.38-1.58-2.03-.48-.56-.69-1.17-.38-1.82,.96-2.02,.89-4.17,.79-6.31-.05-1.12-.32-2.23-.47-3.35-.13-.94-.3-1.89-.32-2.83-.04-1.78-.55-3.48-.79-5.22-.27-1.97-.67-3.96-.09-5.96,.14-.47,.01-1.02,.14-1.49,.2-.78,.54-1.49,.92-2.22,1.29-2.43,2.41-4.96,3.07-7.63,.38-1.53,1.09-2.87,1.8-4.22,.8-1.51,1.73-2.96,2.72-4.36,.68-.96,1.55-1.79,2.32-2.69,.32-.38,.63-.78,.88-1.2,.9-1.51,1.63-3.16,2.71-4.51,1.23-1.53,2.77-2.82,4.2-4.19,.91-.87,2.01-1.47,2.78-2.54,.93-1.3,2.28-2.2,3.67-3.01,3.49-2.03,6.62-4.52,9.28-7.55,1.25-1.42,2.39-2.96,3.43-4.55,.68-1.05,1.09-2.27,1.64-3.41,.89-1.83,1.78-3.66,3.05-5.27,1.01-1.28,2.04-2.56,3.13-3.77,1.47-1.64,3.01-3.2,4.51-4.81,.78-.83,1.47-1.75,2.29-2.54,.92-.87,1.95-1.63,2.92-2.44,.28-.24,.53-.51,.8-.76,.81-.73,1.67-1.42,2.44-2.19,.8-.81,1.56-1.66,2.27-2.55,1.21-1.52,2.36-3.09,3.55-4.63,1.67-2.15,3.51-4.18,4.98-6.45,1.44-2.23,2.56-4.68,3.73-7.08,1.36-2.82,1.85-5.92,2.47-8.95,.39-1.9,.33-3.89,.63-5.82,.27-1.73,.03-3.5,.31-5.19,.29-1.79-.21-3.39-.66-5.01-.46-1.61-1.25-3.1-2.49-4.31-.58-.57-1.03-1.28-1.61-1.85-1.53-1.5-3.26-2.73-5.12-3.78-1.48-.83-3.05-1.07-4.72-.58-1.12,.33-2.26,.59-3.4,.87-1.06,.26-1.98,.82-2.95,1.31-2.68,1.39-5.34,2.86-8.26,3.74-.97,.29-1.91,.52-2.93,.5-1.7-.03-3.41-.02-5.11,0-.41,0-.82,.04-1.22,.12-.84,.18-1.49-.13-1.64-.91-.16-.84-.31-1.71-.29-2.56,.03-.89-.28-1.78-.03-2.66,.13-.47,.22-.96,.4-1.42,.4-1.05,.76-2.13,1.3-3.11,.97-1.78,2.02-3.5,3.78-4.68,1.35-.91,2.56-2.02,3.81-3.06,.7-.58,1.43-1.14,2.05-1.8,1.13-1.19,2.23-2.41,3.29-3.67,.63-.76,1.18-1.6,1.72-2.43,.48-.72,.86-1.47,.8-2.41-.08-1.12-.63-1.81-1.76-1.8-.76,0-1.55,.12-2.27,.34-2.28,.72-4.55,1.48-6.48,2.96-.53,.41-.98,.93-1.4,1.45-.69,.84-1.25,1.79-2,2.57-.62,.64-1.37,1.2-2.16,1.62-2.4,1.27-4.81,2.54-7.29,3.64-1.35,.6-2.82,.83-4.37,.5-1.5-.31-1.88-1.36-2.13-2.6-.05-.27-.08-.57,0-.82,.42-1.25,.15-2.55,.28-3.81,.11-1.07,.27-2.16,.58-3.19,.56-1.85,1.17-3.7,1.93-5.47,.96-2.25,2.4-4.23,3.84-6.21,1.32-1.82,2.84-3.46,4.46-5,1.32-1.26,2.8-2.3,4.41-3.13,1.53-.79,3.07-1.56,4.62-2.31,2.93-1.42,6.03-2.39,9.17-3.17,1.09-.27,2.26-.24,3.39-.32,1.04-.07,2.08-.04,3.13-.21,.99-.16,2.1,.05,3.08,.34,3.4,1.02,6.82,2.03,10.14,3.28,2.37,.89,4.47,2.37,6.48,3.9,1.91,1.45,3.75,3,5.62,4.51,.11,.09,.23,.18,.29,.29,.54,1.05,1.61,1.58,2.38,2.4,.96,1.02,1.81,2.15,2.7,3.25,.59,.74,1.16,1.51,1.74,2.25,1.34,1.71,2.73,3.39,4,5.15,.55,.76,.94,1.66,1.25,2.55,.98,2.85,1.86,5.73,2.83,8.59,.73,2.17,1.28,4.35,1.06,6.67-.11,1.13-.17,2.27-.28,3.4-.12,1.21,.21,2.37,.62,3.45,.44,1.14,.8,2.29,1.05,3.48,.13,.62,.21,1.25,.26,1.87,.13,1.45-.25,2.93,.27,4.37,.06,.16,.07,.39,0,.55-.43,1.02-.16,2.09-.27,3.12-.18,1.76-.39,3.51-.66,5.25-.17,1.11-.56,2.19-.66,3.31-.17,1.85-1.12,3.42-1.64,5.14-.29,.99-.58,1.99-.94,2.96-.55,1.48-1.12,2.95-1.76,4.39-.64,1.44-1.41,2.82-2.09,4.24-1.45,3.06-2.77,6.16-3.87,9.36-.63,1.83-1.45,3.59-2.17,5.38-1.14,2.84-2.18,5.72-3.42,8.52-1.1,2.48-2.45,4.85-3.61,7.31-1.27,2.66-3.01,5.04-4.48,7.57-1.2,2.06-2.81,3.8-4.33,5.57-2.53,2.96-5.26,5.78-8.13,8.42-1.99,1.83-3.69,3.89-5.52,5.85-1.33,1.42-2.2,3.09-3.07,4.78-.87,1.7-.87,3.39-.01,5.08,.37,.73,.72,1.46,1.09,2.19,.94,1.84,2.57,2.56,4.58,1.94,1.33-.41,2.68-.82,3.93-1.44,1.89-.93,3.52-2.21,4.53-4.17,.39-.75,1.01-1.39,1.48-2.1,.25-.37,.41-.8,.63-1.19,.49-.86,.85-1.83,1.5-2.55,1.69-1.85,3.15-3.87,4.73-5.8,1-1.23,2.09-2.4,3.05-3.67,1.44-1.91,2.88-3.83,4.37-5.71,.73-.93,1.59-1.76,2.35-2.67,1.62-1.96,3.37-3.8,4.85-5.88,1.21-1.7,2.6-3.27,3.97-4.85,1.15-1.33,2.38-2.59,3.58-3.87,1.73-1.83,3.51-3.62,5.19-5.5,1.36-1.52,2.6-3.15,3.92-4.71,.83-.97,1.71-1.9,2.56-2.85,.86-.95,1.67-1.94,2.58-2.84,1.8-1.77,3.58-3.56,5.5-5.19,1.37-1.16,2.93-2.11,4.45-3.08,1.56-1,3.18-1.88,4.75-2.86,3.26-2.05,6.7-3.71,10.3-5.07,1.43-.54,2.85-1.1,4.3-1.58,1.02-.34,2.08-.56,3.12-.82,.35-.09,.7-.16,1.42-.32-.32,.68-.48,1.13-.73,1.52-.59,.91-1.17,1.83-1.85,2.67-.97,1.21-1.02,2.6-.9,4.02,.05,.59,.36,1.08,1.01,1.33,1.14,.45,2.26,.61,3.46,.29,.46-.12,.99-.06,1.48-.03,.54,.03,1.08,.11,1.62,.19,.54,.08,.93-.21,1.14-.62,.44-.85,1.15-1.39,1.93-1.88,3.17-2.01,6.45-3.82,10.01-5.06,.86-.3,1.73-.5,2.66-.48,.49,.01,.98-.15,1.47-.22,.23-.03,.46-.06,.69-.03,1.25,.16,2.5,.41,3.76,.5,1.59,.12,3.19,.15,4.75-.35,1.43-.46,2.77-1.06,4.04-1.87,1.82-1.16,3.62-2.38,5.66-3.15,.58-.22,1.09-.62,1.64-.94,2.23-1.29,4.66-2.13,7.04-3.08,2.63-1.05,5.24-2.17,7.91-3.13,1.94-.7,3.93-1.35,5.96-1.71,1.68-.3,3.36-.81,5.12-.68,.8,.06,1.62-.14,2.43-.27,1.84-.31,3.69-.55,5.55-.52,.8,.02,1.6,.16,2.39,.25,.17,.69-.11,1.03-.48,1.41-1.22,1.23-2.43,2.48-3.58,3.77-.28,.31-.42,.8-.52,1.22-.43,1.93-1.7,3.17-3.32,4.1-1.89,1.08-3.6,2.41-5.31,3.75-1.57,1.23-2.86,2.79-4.71,3.68-.73,.35-1.39,.77-2.22,.94-1.02,.22-2.02,.44-3.07,.52-.75,.05-1.54,.24-2.21,.57-1.58,.78-3.07,1.71-4.41,2.9-2.91,2.61-6.15,4.74-9.66,6.47-.93,.46-1.84,.97-2.72,1.52-2.1,1.33-4.37,2-6.83,2.38-2.25,.35-4.58,.54-6.65,1.69-.31,.17-.66,.3-1.01,.39-1.31,.35-2.49,.93-3.66,1.65-1.25,.77-2.72,1.19-4.1,1.74-1.89,.76-3.71,1.63-5.48,2.64-1.61,.92-3.24,1.8-4.75,2.86-2.41,1.7-4.84,3.37-6.89,5.53-1.76,1.85-3.54,3.68-5.17,5.67-1.83,2.23-3.89,4.28-5.97,6.28-1.33,1.28-2.78,2.45-4.53,3.2-.7,.3-1.36,.5-2.24,.21,.25-.41,.41-.85,.71-1.14,.92-.88,1.9-1.71,2.86-2.55,.98-.85,2.3-1.34,2.81-2.7-.51-1.23-1.19-1.55-2.37-.91-1.19,.64-2.34,1.36-3.44,2.15-3.38,2.41-6.73,4.88-10.1,7.31-.88,.63-1.76,1.27-2.7,1.82-1.98,1.15-3.64,2.7-5.3,4.26-1.74,1.63-3.43,3.31-5.2,4.9-1.34,1.21-2.35,2.67-3.43,4.07-.66,.86-1.28,1.75-1.88,2.65-.25,.37-.45,.78-.58,1.2-.25,.88,.33,1.61,1.25,1.46,.64-.11,1.33-.39,1.83-.8,1.02-.84,1.88-1.82,3.05-2.52,.7-.42,1.1-1.32,1.73-1.91,1.54-1.47,2.96-3.05,4.6-4.44,1.39-1.18,2.95-2.12,4.29-3.35,.1-.09,.22-.16,.34-.21,1.75-.69,3.15-1.94,4.71-2.93,1.47-.94,2.99-1.58,4.75-1.81,3.13-.41,5.98-1.66,8.64-3.33,.23-.14,.41-.37,.61-.55,1.08-.99,2.16-1.97,3.23-2.96,.1-.09,.2-.19,.29-.3,.53-.62,1.03-1.28,1.6-1.86,1.95-1.94,3.73-4.02,5.55-6.07,2.12-2.4,4.49-4.56,7.16-6.34,2.1-1.4,4.19-2.82,6.36-4.12,1.19-.72,2.5-1.26,3.8-1.78,2.72-1.08,5.44-2.15,8.2-3.11,2.55-.88,5.15-1.59,7.79-2.18,1.31-.29,2.55-.86,3.81-1.34,.93-.35,1.83-.75,2.75-1.12,.12-.05,.26-.07,.38-.13,1.93-.96,3.84-1.97,5.79-2.89,1.3-.62,2.65-1.14,3.99-1.67,2.43-.95,4.98-1.56,7.31-2.81,.92-.49,2.07-.72,3.13-.74,1.73-.03,3.27-.59,4.87-1.1,2.01-.64,4.07-1.16,6.12-1.66,.56-.14,1.21-.11,1.78,.02,1.36,.31,2.67,.25,4.05,0,1.38-.26,2.81-.3,4.22-.31,1.04,0,2.08,.19,3.11,.32,1.12,.14,2.24,.48,3.35,.45,2.26-.06,4.42,.41,6.58,.93,1.15,.28,2.29,.53,3.49,.5,1.34-.04,2.67,0,4.01-.02,.45,0,.91-.06,1.34-.19,.99-.3,1.89,.17,2.81,.31,.69,.11,.9,1.02,.51,1.86Z"/>
  <path d="M224.12,212.21c-1.43,.68-2.83,1.44-3.96,2.57-.29,.29-.44,.74-.52,.87,0,1.44,1.14,2.3,2.16,1.84,1.5-.68,2.81-1.65,3.95-2.83,.42-.44,.33-1.3-.09-1.9-.35-.49-1.06-.79-1.54-.56Z"/>
  <path class="cls-2" d="M80.49,90.54c-.96,.26-1.8,.68-2.41,1.61-.64,.98-.85,1.98-.78,2.96,0,.45,.02,.78,0,1.1-.06,.74,.28,1.15,.93,1.5,.82,.44,1.53,.27,2.15-.24,1.41-1.15,2.32-2.66,2.7-4.44,.26-1.25-1.36-2.82-2.57-2.49Z"/>
</svg>